<?xml version="1.0" encoding="iso-8859-1"?>
<!-- Generator: Adobe Illustrator 19.0.0, SVG Export Plug-In . SVG Version: 6.00 Build 0)  -->
<svg version="1.1" id="Layer_1" xmlns="http://www.w3.org/2000/svg" xmlns:xlink="http://www.w3.org/1999/xlink" x="0px" y="0px"
	 viewBox="0 0 454.182 454.182" style="enable-background:new 0 0 454.182 454.182;" xml:space="preserve">
<g>
	<polygon style="fill:#EFEFEF;" points="383.854,454.182 281.877,404.159 281.877,297.761 265.877,297.761 265.877,404.159 
		163.9,454.182 	"/>
	<circle style="fill:#F4A026;" cx="145.419" cy="133.13" r="99.812"/>
	<polygon style="fill:#EFEFEF;" points="139.417,133.128 273.877,313.388 408.337,133.128 	"/>
	<polygon style="fill:#3E81C8;" points="372.027,181.808 273.877,313.388 175.727,181.808 	"/>
	
		<rect x="314.148" y="-18.31" transform="matrix(0.8521 0.5234 -0.5234 0.8521 117.6754 -148.8213)" style="fill:#37495E;" width="16" height="304.207"/>
	<path style="fill:#F5C525;" d="M153.417,151.891l32.18,43.147c-9.45,6.15-20.4,10.2-32.18,11.47V151.891z"/>
	<path style="fill:#F5C525;" d="M126.107,125.128h-54.06c1.55-14.38,7.24-27.52,15.84-38.21L126.107,125.128z"/>
	<path style="fill:#F5C525;" d="M126.107,141.128l-38.22,38.22c-8.6-10.69-14.29-23.83-15.84-38.22H126.107z"/>
	<path style="fill:#F5C525;" d="M137.417,152.449v54.06c-14.38-1.55-27.52-7.24-38.22-15.84L137.417,152.449z"/>
	<path style="fill:#F5C525;" d="M218.787,125.128h-54.05l38.21-38.21C211.557,97.609,217.237,110.748,218.787,125.128z"/>
	<path style="fill:#F5C525;" d="M191.637,75.599l-38.22,38.22v-54.06C167.807,61.308,180.937,66.998,191.637,75.599z"/>
	<path style="fill:#F5C525;" d="M137.417,59.758v54.06l-38.22-38.22C109.897,66.998,123.037,61.308,137.417,59.758z"/>
</g>
<g>
</g>
<g>
</g>
<g>
</g>
<g>
</g>
<g>
</g>
<g>
</g>
<g>
</g>
<g>
</g>
<g>
</g>
<g>
</g>
<g>
</g>
<g>
</g>
<g>
</g>
<g>
</g>
<g>
</g>
</svg>
