<?xml version="1.0" encoding="iso-8859-1"?>
<!-- Generator: Adobe Illustrator 18.0.0, SVG Export Plug-In . SVG Version: 6.00 Build 0)  -->
<!DOCTYPE svg PUBLIC "-//W3C//DTD SVG 1.1//EN" "http://www.w3.org/Graphics/SVG/1.1/DTD/svg11.dtd">
<svg version="1.1" id="Capa_1" xmlns="http://www.w3.org/2000/svg" xmlns:xlink="http://www.w3.org/1999/xlink" x="0px" y="0px"
	 viewBox="0 0 477.474 477.474" style="enable-background:new 0 0 477.474 477.474;" xml:space="preserve">
<path d="M375.287,86.972H173.67l-10.933-20.366l63.022-35.552c2.176-1.227,2.923-4.455,1.877-8.108
	c-1.044-3.653-3.664-6.973-6.581-8.33C189.5-0.089,157.881-3.156,131.394,8.219l-2.006-3.737c-2.221-4.136-7.37-5.69-11.51-3.469
	c-4.136,2.22-5.688,7.374-3.469,11.509l2.15,4.006C92.85,33.27,78.964,62.057,75.203,96.895c-0.346,3.198,1.137,7.157,3.724,9.942
	c2.586,2.784,5.736,3.813,7.911,2.585l61.09-34.462l6.651,12.393c-13.976,2.279-23.42,14.62-21.576,29.388l7.75,60.255h61.948
	l16.104,30h-74.194l30.959,240.709c2.044,16.373,17.217,29.769,33.717,29.769h124c16.5,0,31.408-13.426,33.129-29.837
	l25.999-240.642H238.099l-16.104-30h173.66l6.503-60.188C403.879,100.398,391.787,86.972,375.287,86.972z"/>
<g>
</g>
<g>
</g>
<g>
</g>
<g>
</g>
<g>
</g>
<g>
</g>
<g>
</g>
<g>
</g>
<g>
</g>
<g>
</g>
<g>
</g>
<g>
</g>
<g>
</g>
<g>
</g>
<g>
</g>
</svg>
