<?xml version="1.0" encoding="iso-8859-1"?>
<!-- Generator: Adobe Illustrator 19.0.0, SVG Export Plug-In . SVG Version: 6.00 Build 0)  -->
<svg version="1.1" id="Capa_1" xmlns="http://www.w3.org/2000/svg" xmlns:xlink="http://www.w3.org/1999/xlink" x="0px" y="0px"
	 viewBox="0 0 60 60" style="enable-background:new 0 0 60 60;" xml:space="preserve">
<g>
	<circle cx="23.002" cy="23" r="1"/>
	<circle cx="26.002" cy="25" r="1"/>
	<circle cx="27.002" cy="21" r="1"/>
	<path d="M29.002,36c-10.999,0-19.725-3.782-22.254-9.207c-0.492,2.173-0.746,4.415-0.746,6.707c0,14.612,10.318,26.5,23,26.5
		s23-11.888,23-26.5c0-2.292-0.254-4.533-0.746-6.707C48.727,32.218,40,36,29.002,36z M28.002,53c-8.271,0-15-6.729-15-15
		c0-0.552,0.448-1,1-1s1,0.448,1,1c0,7.168,5.832,13,13,13c0.552,0,1,0.448,1,1S28.554,53,28.002,53z"/>
	<path d="M57.123,8.878L50.98,2.735c-1.347-1.348-3.226-1.989-5.109-1.738c-1.896,0.247-3.539,1.348-4.507,3.015l-5.598,9.55
		c0.233,0.039,0.469,0.07,0.7,0.113C34.056,13.228,31.544,13,29.002,13c-4.884,0-9.314,0.802-12.844,2.151l-2.539-5.028
		c-0.035-0.112-0.085-0.218-0.154-0.309c-0.176-0.464,0.124-1.093,0.704-1.428c0.612-0.353,1.396-0.25,1.655,0.199
		c0.186,0.321,0.521,0.5,0.867,0.5c0.006,0,0.009,0.001,0.019,0c0.552,0,1-0.448,1-1c0-0.228-0.076-0.437-0.204-0.605
		c-0.176-0.464,0.124-1.092,0.705-1.427C18.818,5.7,19.602,5.8,19.863,6.249c0,0.001,0,0.001,0.001,0.002
		c0.186,0.321,0.521,0.5,0.867,0.5c0.006,0,0.011-0.001,0.019,0c0.552,0,1-0.448,1-1c0-0.252-0.093-0.482-0.247-0.658
		C19.612,1.947,16.177,0,12.494,0c-1.833,0-3.646,0.487-5.241,1.408C4.824,2.811,3.087,5.075,2.361,7.784
		c-0.726,2.709-0.354,5.539,1.049,7.967c0.186,0.321,0.521,0.5,0.867,0.5c0.169,0,0.342-0.043,0.499-0.134
		c0.479-0.276,0.642-0.888,0.366-1.366c0,0,0-0.001,0-0.001c-0.212-0.372,0.215-1.277,0.944-1.698
		c0.611-0.352,1.396-0.25,1.654,0.199c0.186,0.321,0.521,0.5,0.867,0.5c0.006,0,0.011,0,0.019,0c0.552,0,1-0.448,1-1
		c0-0.228-0.076-0.438-0.204-0.605c-0.093-0.246-0.036-0.493,0.012-0.629c0.112-0.318,0.364-0.608,0.692-0.798
		c0.611-0.353,1.391-0.25,1.652,0.196l2.536,5.022c-3.909,1.896-6.313,4.561-6.313,7.562c0,5.888,9.224,10.5,21,10.5
		s21-4.612,21-10.5c0-3.377-2.954-6.377-8.205-8.363l0.001,0l4.768-8.134l0.171-0.024l0.001-0.002l6.143,6.143
		c1.133,1.134,3.111,1.133,4.243,0.001c0.567-0.567,0.879-1.32,0.879-2.122S57.69,9.445,57.123,8.878z M46.002,23.5
		c0,2.65-6.623,6.5-17,6.5s-17-3.85-17-6.5c0-1.246,1.479-2.754,4.109-4.006l1.998,3.956c0.047,0.094,0.109,0.175,0.178,0.246
		c0.013,0.013,0.029,0.022,0.043,0.034c0.073,0.067,0.153,0.12,0.24,0.162c0.029,0.014,0.057,0.026,0.087,0.038
		c0.11,0.041,0.224,0.069,0.342,0.069c0.001,0,0.001,0,0.002,0l0,0c0,0,0,0,0,0c0.117,0,0.235-0.028,0.349-0.071
		c0.02-0.008,0.04-0.013,0.06-0.022c0.013-0.006,0.028-0.008,0.041-0.015c0.044-0.022,0.072-0.06,0.112-0.088
		c0.059-0.042,0.119-0.079,0.168-0.132c0.044-0.048,0.073-0.103,0.106-0.157c0.034-0.055,0.07-0.106,0.093-0.167
		c0.025-0.067,0.032-0.137,0.042-0.208c0.007-0.048,0.028-0.091,0.028-0.141c0-0.012-0.006-0.021-0.007-0.032
		c-0.002-0.066-0.024-0.129-0.039-0.194c-0.016-0.066-0.025-0.133-0.053-0.193c-0.005-0.01-0.004-0.021-0.009-0.031l-1.931-3.824
		C20.805,17.709,24.555,17,29.002,17c1.795,0,3.564,0.119,5.258,0.354l4.195,0.88C42.928,19.53,46.002,21.688,46.002,23.5z"/>
</g>
<g>
</g>
<g>
</g>
<g>
</g>
<g>
</g>
<g>
</g>
<g>
</g>
<g>
</g>
<g>
</g>
<g>
</g>
<g>
</g>
<g>
</g>
<g>
</g>
<g>
</g>
<g>
</g>
<g>
</g>
</svg>
