<?xml version="1.0" encoding="iso-8859-1"?>
<!-- Generator: Adobe Illustrator 19.0.0, SVG Export Plug-In . SVG Version: 6.00 Build 0)  -->
<svg version="1.1" id="Layer_1" xmlns="http://www.w3.org/2000/svg" xmlns:xlink="http://www.w3.org/1999/xlink" x="0px" y="0px"
	 viewBox="0 0 234.536 234.536" style="enable-background:new 0 0 234.536 234.536;" xml:space="preserve">
<g>
	<g>
		<g>
			<path d="M193.172,108.62l-0.092-0.632h-0.128l-0.332-1.26h-54.392l21.684-38.772l55.672,28.06l-36.824-61.76l6.88-12.3
				l0.52-0.932l-6.02-3.032l-7.368,13.176l-74.644,5.64l55.768,28.108l-23.38,41.804h-22.324c0.276-0.252,0.512-0.548,0.848-0.736
				c1.032-0.572,1.376-1.32,1.48-1.848c0.168-0.82-0.088-1.676-0.768-2.548l-0.184-0.236l-3.468-0.5l-4.98-1.76
				c-0.272-0.112-2.636-0.948-4.144-1.46l-1.144-4.02v-0.004L89.54,71.492l-3.012-10.588l-6.296-22.132l-2.684-9.44v-0.004
				L72.78,12.58L69.572,1.308L69.204,0L58.676,2.996l3.4,11.948l2.592,9.112l-0.004,0.004l5.604,19.7v-0.004l2.696,9.472
				l-0.004,0.008l6.248,21.944v-0.004l2.796,9.832L82,85.012l3.228,11.352l-0.168,0.008c-0.74-2.16-2.948-8.416-4.612-10.884
				c-0.796-1.46-2.86-4.012-3.484-4.776l-0.672-0.764c-0.576-0.644-1.344-1.5-1.592-1.824L74,76.02l-1.148-1.34l-0.368-0.092
				c-1.036-0.264-2.9-0.344-3.724,2.136c-0.196,0.584-0.496,1.132-0.788,1.688l-0.28,0.608c-0.776,0.96-3.404,4.58-5.684,8.084
				c-2.1-2.136-4.36-4.16-6.92-5.812c-14.204-9.144-29.596-4.56-30.248-4.364l-1.436,0.44l0.528,1.412
				c0.232,0.628,4.744,12.396,13.48,21.8c-0.324,0.1-0.624,0.196-0.864,0.264l-0.692-0.016c-0.96,0.016-2.044,0.136-2.752,0.916
				c-0.672,0.74-0.644,1.66-0.632,2.42c0.012,1.044,2.788,2.9,2.788,2.9l1.66,2.504c-0.084,0.04-0.172,0.068-0.256,0.112
				c-12.784,6.164-17.06,19.196-17.236,19.748l-0.476,1.504l1.548,0.316c0.344,0.068,4.672,0.92,10.52,0.92
				c4.848,0,10.708-0.712,16.228-2.828l-0.356,1.908l-0.212,3.576l0.416,7.4c0.02,1.112-0.004,1.956-0.46,2.648l-0.4,1.892
				l1.948,2.272l2.084-0.2l0.36-0.364c0.376-0.376,0.824-0.688,1.316-0.964c-0.228,4.5-0.38,9.132-0.38,14.028
				c0,48.436,24.668,73,73.324,73c47.28,0,73.32-25.924,73.32-73c0-15.124-0.588-34.524-4.84-51.772
				C193.308,109.384,193.228,109.012,193.172,108.62z M191.184,118.724c-4.852,4.704-9.864,9.236-14.948,13.648
				c-1.836-1.24-3.672-2.48-5.488-3.744c5.36-4.612,10.588-9.384,15.676-14.304c1.38,0.732,2.84,1.496,4.38,2.284
				C190.94,117.312,191.056,118.02,191.184,118.724z M67.272,142.416c1.524-0.804,3.276-1.792,5.1-2.84l0.772,0.656l7.132,3.936
				c0.192,0.108,0.844,0.352,1.5,0.588c3.288,2.636,6.692,5.304,10.24,8.02c-1.844,1.308-3.688,2.616-5.52,3.916l-3.052,2.16
				c-2.908,2.064-5.864,4.028-8.832,5.944c-6.348-5.076-12.672-10.468-18.7-16.152c0.008-0.188,0.02-0.372,0.028-0.56
				C60.028,146.12,63.808,144.24,67.272,142.416z M56.02,146.412c0.004-0.072,0.008-0.148,0.012-0.22l0.168-0.04
				c0.188-0.048,0.536-0.156,0.944-0.288C56.764,146.048,56.4,146.228,56.02,146.412z M96.172,132.412
				c-0.084-0.832-0.344-2.876-0.38-3.064c-0.152-0.756-0.616-2.876-0.708-3.22l-0.192-0.644c1.512-1,3.076-2.076,4.62-3.112
				c5.26,4.568,10.608,9.028,16.064,13.344c-5.156,3.836-10.344,7.608-15.54,11.332c-1.316-1-2.644-2.004-3.952-3.012L96,143.8
				l-0.036-0.556l0.012-2.58L96.284,136C96.284,135.292,96.22,132.8,96.172,132.412z M152.144,152.304
				c-1.624,1.3-3.3,2.648-4.88,3.904c-0.148,0.116-0.296,0.232-0.44,0.348c-1.88-1.248-3.764-2.492-5.624-3.768
				c0.68-0.54,1.368-1.084,2.044-1.624c1.072-0.852,2.156-1.728,3.236-2.588C148.348,149.848,150.256,151.064,152.144,152.304z
				 M147.696,147.604c5.204-4.152,10.412-8.372,15.604-12.68c1.832,1.292,3.696,2.532,5.544,3.8
				c-5.244,4.384-10.416,8.564-15.484,12.612C151.468,150.096,149.568,148.872,147.696,147.604z M111.984,165.856
				c-3.784-2.768-7.36-5.42-10.852-8.032c1.836-1.308,3.672-2.628,5.512-3.948c3.056,2.284,6.116,4.556,9.152,6.776
				c2.248,1.644,4.524,3.288,6.784,4.932c-1.768,1.372-3.552,2.74-5.332,4.1C115.492,168.404,113.74,167.14,111.984,165.856z
				 M116.036,170.62c-5.6,4.268-11.276,8.46-17.028,12.548c-5.272-3.804-10.868-7.908-16.576-12.264
				c2.164-1.436,4.324-2.88,6.448-4.384l3.048-2.16c2.64-1.868,5.292-3.748,7.944-5.636c3.616,2.704,7.324,5.452,11.248,8.32
				C112.76,168.244,114.396,169.424,116.036,170.62z M123.828,166.488c1.812,1.316,3.616,2.636,5.432,3.952
				c-1.764,1.376-3.548,2.74-5.324,4.108c-1.812-1.316-3.624-2.636-5.44-3.956C120.276,169.228,122.06,167.864,123.828,166.488z
				 M130.5,171.34c6.072,4.396,12.148,8.772,18.196,13.1c-1.688,1.404-3.388,2.812-5.14,4.248c-6.068-4.34-12.2-8.764-18.376-13.24
				C126.956,174.08,128.736,172.716,130.5,171.34z M130.46,169.496c-1.812-1.312-3.616-2.628-5.424-3.944
				c5.036-3.924,10.012-7.872,14.956-11.804c1.86,1.276,3.736,2.528,5.612,3.78C140.6,161.512,135.556,165.512,130.46,169.496z
				 M142.328,150.012c-0.792,0.632-1.592,1.264-2.388,1.896c-5.212-3.608-10.34-7.336-15.4-11.156
				c1.792-1.348,3.576-2.7,5.352-4.068c5.032,3.768,10.124,7.464,15.32,11.02C144.252,148.468,143.284,149.248,142.328,150.012z
				 M138.736,152.864c-4.94,3.928-9.912,7.868-14.94,11.784c-2.376-1.728-4.768-3.456-7.132-5.184
				c-2.948-2.156-5.86-4.32-8.768-6.484c5.16-3.708,10.3-7.476,15.412-11.304C128.376,145.512,133.512,149.244,138.736,152.864z
				 M106.656,152.06c-1.812-1.352-3.596-2.716-5.388-4.072c5.18-3.716,10.356-7.484,15.496-11.312c1.756,1.38,3.54,2.724,5.32,4.076
				C116.968,144.58,111.82,148.348,106.656,152.06z M105.4,152.96c-1.836,1.316-3.672,2.636-5.504,3.94
				c-1.832-1.376-3.636-2.74-5.396-4.08c1.84-1.308,3.68-2.624,5.52-3.94C101.816,150.24,103.6,151.616,105.4,152.96z
				 M98.632,157.792c-2.524,1.792-5.048,3.584-7.56,5.364l-3.048,2.16c-2.252,1.596-4.536,3.136-6.828,4.648
				c-1.784-1.372-3.572-2.776-5.364-4.196c2.844-1.844,5.672-3.736,8.46-5.712l3.052-2.16c1.956-1.384,3.924-2.78,5.888-4.176
				C94.984,155.052,96.812,156.424,98.632,157.792z M97.74,184.072c-1.864,1.316-3.74,2.608-5.62,3.896
				c-5.364-3.884-11.04-8.068-16.812-12.528c1.956-1.2,3.908-2.4,5.836-3.664C86.848,176.144,92.46,180.26,97.74,184.072z
				 M99.012,184.984c1.444,1.04,2.888,2.08,4.272,3.076c0.412,0.296,0.844,0.604,1.26,0.904c-1.848,1.324-3.696,2.652-5.564,3.948
				c-1.808-1.296-3.672-2.64-5.58-4.016C95.28,187.604,97.152,186.304,99.012,184.984z M104.144,186.864
				c-1.252-0.9-2.568-1.848-3.868-2.784c5.744-4.092,11.412-8.284,17.004-12.556c1.816,1.324,3.628,2.64,5.44,3.956
				c-5.56,4.268-11.192,8.468-16.908,12.576C105.26,187.664,104.692,187.26,104.144,186.864z M123.96,176.384
				c6.188,4.484,12.332,8.916,18.408,13.264c-5.144,4.2-10.552,8.488-16.208,12.78c-6.604-4.54-12.976-9.076-19.092-13.464
				C112.78,184.852,118.404,180.648,123.96,176.384z M143.612,190.54c0.444,0.316,0.9,0.648,1.344,0.964
				c1.344,0.96,2.74,1.94,4.108,2.912c-5.04,4.144-10.368,8.412-15.96,12.708c-1.904-1.272-3.784-2.544-5.652-3.824
				C133.092,199.016,138.484,194.732,143.612,190.54z M145.812,190.308c-0.336-0.24-0.68-0.492-1.016-0.732
				c1.752-1.436,3.452-2.848,5.14-4.252c1.788,1.276,3.616,2.568,5.448,3.86c-1.68,1.404-3.384,2.82-5.136,4.268
				C148.764,192.4,147.264,191.344,145.812,190.308z M149.864,183.464c-6.036-4.316-12.104-8.684-18.164-13.072
				c5.112-4,10.18-8.016,15.204-12.016c6.096,4.028,12.276,7.936,18.572,11.672c-4.732,4.2-9.484,8.296-14.152,12.204
				C150.852,182.652,150.344,183.064,149.864,183.464z M148.12,157.412c0.02-0.016,0.04-0.032,0.056-0.044
				c1.704-1.356,3.508-2.808,5.26-4.204c5.98,3.904,12.048,7.684,18.224,11.304c-1.672,1.548-3.348,3.056-5.036,4.564
				C160.352,165.316,154.196,161.42,148.12,157.412z M154.652,152.188c5.064-4.048,10.22-8.22,15.452-12.6
				c5.296,3.604,10.648,7.092,16.068,10.472c-4.304,4.612-8.792,9.048-13.384,13.332C166.644,159.8,160.604,156.06,154.652,152.188z
				 M170.024,137.752c-1.852-1.264-3.72-2.5-5.552-3.792c1.716-1.428,3.42-2.864,5.12-4.316c1.812,1.264,3.652,2.492,5.484,3.732
				C173.388,134.832,171.716,136.332,170.024,137.752z M163.2,133.092c-5.092-3.612-10.112-7.332-15.06-11.144
				c1.68-1.428,3.356-2.856,5.008-4.312c4.98,3.808,10.036,7.536,15.184,11.152C166.628,130.24,164.916,131.664,163.2,133.092z
				 M162.032,134.056c-5.196,4.308-10.412,8.536-15.62,12.688c-5.192-3.548-10.28-7.24-15.312-11
				c5.396-4.172,10.72-8.44,15.916-12.828C151.952,126.724,156.952,130.444,162.032,134.056z M129.876,134.824
				c-1.784-1.34-3.584-2.656-5.348-4.024c5.48-4.208,10.876-8.508,16.144-12.92c1.716,1.368,3.392,2.78,5.124,4.124
				C140.596,126.388,135.276,130.652,129.876,134.824z M128.668,135.764c-1.776,1.364-3.56,2.72-5.352,4.068
				c-1.776-1.352-3.564-2.688-5.32-4.068c1.784-1.332,3.552-2.684,5.32-4.036C125.08,133.1,126.884,134.416,128.668,135.764z
				 M116.812,134.808c-5.444-4.3-10.776-8.74-16.02-13.288c1.856-1.256,3.668-2.456,5.548-3.752
				c5.172,4.452,10.424,8.804,15.796,13.012C120.364,132.128,118.592,133.472,116.812,134.808z M99.64,120.528
				c-0.464-0.404-0.94-0.8-1.4-1.208c0.904-0.796,1.716-1.572,2.372-2.344c0.672-0.792,1.28-1.644,1.904-2.48
				c0.876,0.772,1.78,1.512,2.66,2.276C103.304,118.064,101.488,119.276,99.64,120.528z M98.36,121.388
				c-1.312,0.884-2.644,1.796-3.936,2.652l-0.632-1.412l0.28-0.188c0.996-0.648,1.956-1.272,2.852-1.988
				c0.068-0.052,0.112-0.1,0.176-0.152C97.516,120.668,97.944,121.02,98.36,121.388z M95.004,148.972l1.26-1.308l0.396-0.748
				l0.012-0.592c0.708,0.544,1.416,1.08,2.124,1.62c-1.84,1.316-3.68,2.632-5.52,3.936c-2.668-2.044-5.268-4.064-7.788-6.06
				c0.176,0.044,0.364,0.088,0.484,0.12l2.472,0.608l2.552,0.912l2.272,1.512H95.004z M73.28,165.636
				c-1.932,1.228-3.868,2.436-5.824,3.6c-3.996-3.236-7.968-6.592-11.852-10.06c0.028-2.94,0.096-5.808,0.208-8.592
				C61.472,155.86,67.364,160.892,73.28,165.636z M74.512,166.604c1.8,1.432,3.6,2.848,5.392,4.228
				c-1.928,1.256-3.876,2.456-5.828,3.652c-1.792-1.392-3.584-2.812-5.38-4.256C70.644,169.056,72.58,167.836,74.512,166.604z
				 M90.82,188.848c-5.468,3.716-11.008,7.312-16.656,10.72L58.888,184.68c5.084-2.604,10.124-5.4,15.088-8.408
				C79.756,180.748,85.44,184.948,90.82,188.848z M78.744,206.088c-1.908,1.156-3.848,2.256-5.776,3.372l-4.796-4.672
				c1.936-1.104,3.864-2.224,5.78-3.372L78.744,206.088z M75.272,200.648c5.708-3.456,11.304-7.112,16.832-10.872
				c1.908,1.38,3.768,2.72,5.576,4.02c-5.776,3.98-11.64,7.84-17.632,11.508L75.272,200.648z M98.948,194.704
				c6.104,4.384,12.592,8.996,19.264,13.624c-6.58,4.768-13.444,9.444-20.584,13.896c-3.316-3.052-6.556-6.188-9.748-9.296
				l-6.752-6.58C87.18,202.632,93.108,198.732,98.948,194.704z M100.248,193.824c1.868-1.3,3.708-2.632,5.556-3.956
				c6.12,4.396,12.504,8.944,19.124,13.5c-1.792,1.352-3.62,2.696-5.464,4.04C112.808,202.792,106.344,198.204,100.248,193.824z
				 M126.216,204.248c1.872,1.28,3.752,2.56,5.66,3.832c-1.788,1.364-3.616,2.728-5.456,4.092c-1.92-1.292-3.788-2.576-5.672-3.872
				C122.592,206.952,124.424,205.604,126.216,204.248z M133.176,208.936c5.8,3.852,11.748,7.628,17.828,11.236
				c-1.956,1.312-3.952,2.596-5.948,3.88c-5.908-3.576-11.7-7.252-17.328-11.02C129.564,211.668,131.388,210.304,133.176,208.936z
				 M134.408,207.98c5.564-4.284,10.88-8.548,15.904-12.676c5.872,4.148,11.948,8.336,18.192,12.372
				c-5.192,3.904-10.576,7.788-16.156,11.572C146.232,215.636,140.244,211.848,134.408,207.98z M151.496,194.336
				c1.752-1.448,3.452-2.864,5.132-4.268c6.024,4.232,12.256,8.46,18.58,12.48c-1.792,1.396-3.612,2.792-5.46,4.192
				C163.484,202.704,157.392,198.5,151.496,194.336z M156.556,188.212c-1.836-1.292-3.66-2.584-5.448-3.86
				c0.38-0.32,0.784-0.648,1.164-0.964c4.788-4.012,9.668-8.216,14.524-12.532c1.956,1.152,3.948,2.244,5.924,3.364
				C167.32,179.068,161.88,183.752,156.556,188.212z M167.948,169.828c1.692-1.516,3.368-3.04,5.048-4.596
				c1.94,1.128,3.888,2.244,5.848,3.344c-1.652,1.552-3.296,3.104-4.964,4.616C171.904,172.064,169.908,170.976,167.948,169.828z
				 M174.124,164.16c4.568-4.276,9.04-8.696,13.328-13.296c1.864,1.156,3.7,2.372,5.58,3.496c-4.204,4.56-8.596,8.916-13.064,13.148
				C178.008,166.408,176.064,165.284,174.124,164.16z M187.212,148.976c-5.372-3.344-10.68-6.796-15.928-10.36
				c1.692-1.424,3.36-2.928,5.048-4.384c5.028,3.38,10.108,6.684,15.26,9.868c-1.188,1.376-2.336,2.684-3.412,3.868
				C187.868,148.316,187.528,148.636,187.212,148.976z M190.4,114.748c-0.988-0.512-1.94-1.008-2.86-1.496
				c0.692-0.68,1.408-1.332,2.096-2.016C189.916,112.392,190.152,113.572,190.4,114.748z M188.032,110.724
				c-0.616,0.608-1.248,1.196-1.868,1.8c-1.148-0.612-2.24-1.212-3.304-1.8H188.032z M179.856,110.724
				c1.648,0.936,3.352,1.884,5.192,2.872c-5.052,4.868-10.236,9.6-15.556,14.172c-5.156-3.612-10.228-7.316-15.212-11.116
				c2.188-1.944,4.324-3.932,6.452-5.928H179.856z M148.972,110.728h9.6c-1.811,1.679-3.637,3.345-5.488,4.988
				c-1.744-1.34-3.46-2.7-5.176-4.06C148.26,111.344,148.62,111.04,148.972,110.728z M151.984,116.72
				c-1.66,1.46-3.36,2.88-5.044,4.312c-1.728-1.34-3.396-2.752-5.104-4.116c1.668-1.408,3.308-2.84,4.944-4.272
				C148.504,114.012,150.232,115.376,151.984,116.72z M144.328,110.724c0.42,0.336,0.852,0.66,1.268,0.996
				c-1.636,1.428-3.272,2.852-4.936,4.252c-2.172-1.744-4.368-3.464-6.508-5.248H144.328z M180.964,20.696l2.372,1.196l-5.784,10.34
				l-0.812-1.364l-1.528,0.116L180.964,20.696z M132.84,51.132l22.052-7.664c0.292-0.1,0.448-0.424,0.348-0.724
				c-0.104-0.3-0.428-0.46-0.724-0.348l-23.088,8.024l-22.924-11.556l66.696-5.032L208.164,89.1l-23.172-11.68
				c0.24-0.124,0.38-0.396,0.288-0.664l-8.932-26.404c-0.092-0.292-0.404-0.464-0.72-0.352c-0.292,0.096-0.452,0.42-0.352,0.72
				l8.892,26.284l-26.176-13.196c0.024-0.028,0.072-0.02,0.092-0.052l9.412-16.428c0.156-0.268,0.064-0.616-0.212-0.772
				s-0.616-0.068-0.772,0.212L157.1,63.196c-0.028,0.048-0.008,0.104-0.02,0.156L132.84,51.132z M155.72,65.84l2.372,1.196
				l-22.2,39.692h-3.04L155.72,65.84z M131.864,110.724c2.512,2.108,5.084,4.152,7.64,6.208
				c-5.276,4.412-10.676,8.716-16.164,12.924c-5.36-4.192-10.6-8.532-15.764-12.968c2.92-2.024,5.836-4.084,8.74-6.164H131.864z
				 M113.792,110.724c-2.452,1.748-4.912,3.472-7.368,5.176c-0.996-0.864-2.016-1.7-3.004-2.572c0.052-0.072,0.112-0.14,0.164-0.212
				l1.592-2.392H113.792z M62.176,4.96l3.012-0.86c-0.744,1.22-1.484,2.436-2.212,3.66L62.176,4.96z M64.052,11.548
				c1.204-2.072,2.468-4.12,3.728-6.164l2.42,8.512c-1.276,2.188-2.476,4.364-3.624,6.524L64.052,11.548z M69.708,31.428
				l-2.012-7.068c1.116-2.192,2.316-4.424,3.584-6.668l3.232,11.356c-1.172,2.312-2.34,4.628-3.508,6.944L69.708,31.428z
				 M72.152,40.02c1.164-2.32,2.336-4.632,3.504-6.948l2.688,9.448l-3.5,6.968L72.152,40.02z M75.996,53.528l3.5-6.972l3.992,14.028
				c-1.212,2.248-2.396,4.504-3.552,6.776L75.996,53.528z M81.084,71.412c1.132-2.3,2.336-4.568,3.536-6.84l2.624,9.216
				c-1.208,2.44-2.34,4.844-3.428,7.224L81.084,71.412z M85.012,85.228c1.056-2.4,2.188-4.868,3.384-7.36l4.4,15.46
				c-0.532,1.052-1.068,2.104-1.604,3.156c-1.088-0.128-2.288-0.26-2.536-0.28l-0.512,0.028L85.012,85.228z M53.56,83.688
				c2.56,1.648,4.8,3.728,6.884,5.928c-0.556,0.92-1.064,1.8-1.432,2.532c-0.54,1.024-0.736,1.872-0.908,2.62
				c-0.076,0.336-0.152,0.676-0.316,1.252l-0.06,0.36l-2.592-0.184l-0.896,0.076l-26.536-17.08
				C32.152,78.328,43.32,77.096,53.56,83.688z M27.788,80.6l7.764,4.996l-4.16,1.872C29.8,84.752,28.588,82.34,27.788,80.6z
				 M31.968,88.452l4.72-2.124l5.36,3.452l-6.932,3.392C33.96,91.568,32.892,89.98,31.968,88.452z M35.788,94.1l7.372-3.608
				l9.224,5.936l-1.988,0.168c-1.228,0.248-7.416,2.096-8.836,2.644c-0.108,0.04-0.52,0.18-1.056,0.356
				C38.78,97.84,37.204,95.988,35.788,94.1z M37.896,112.248c0.204-0.096,0.416-0.164,0.624-0.248l0.332,0.5l3.088,4.104l1.68,1.624
				L23,128.168C24.696,124.392,29.124,116.476,37.896,112.248z M29.644,129.296c-2.216-0.052-4.112-0.208-5.58-0.38l6.232-3.004
				L29.644,129.296z M35.156,129.14c-1.52,0.112-2.988,0.176-4.364,0.172l0.776-4.012l4.564-2.2L35.156,129.14z M42.14,128.06
				c-1.964,0.472-3.912,0.796-5.82,0.984l1.06-6.544l5.604-2.704L42.14,128.06z M49.14,122.724l-1.18,3.364
				c-1.512,0.688-3.072,1.22-4.656,1.66l0.872-8.528l0.312-0.152l1.168,1.128l3.52,2.404
				C49.164,122.64,49.152,122.684,49.14,122.724z M54.364,143.696c-1.508,0.3-3.376,0.824-5.02,2.14c0.624-1.296,0.6-2.64,0.584-3.7
				l-0.416-7.252l0.736-6.34l1.608-4.976l0.008-0.016c0-0.004,0.008-0.012,0.012-0.02c0.216-0.272,0.724-0.912,0.496-1.772
				c-0.156-0.592-0.6-1.048-1.168-1.264l-1.46-0.816l-3.524-2.784l-3.296-3.492l-3.976-6.084l-2.168-2.732l-1.268-0.888
				c0.096-0.008,0.216-0.016,0.356-0.016l1.056,0.024l0.212-0.06c1.196-0.344,4.924-1.556,5.452-1.756
				c1.26-0.484,7.292-2.288,8.248-2.488l3.484-0.356l0.752-0.012l2.26,0.148l2.752,0.484l0.464-2.996
				c0.14-0.448,0.24-0.86,0.332-1.264c0.156-0.692,0.28-1.236,0.664-1.96c1.788-3.584,7.028-10.98,8.536-12.9l0.412-0.792
				c0.368-0.692,0.732-1.392,0.972-2.12c0.02-0.052,0.036-0.096,0.052-0.136l0.616,1.784l0.232,0.404
				c0.296,0.432,1.168,1.424,1.824,2.164l0.612,0.7c1.128,1.376,2.636,3.328,3.248,4.428c1.524,2.268,3.828,8.74,4.584,11.04
				c0.236,0.716,0.684,1.056,1.016,1.216c0.676,0.316,1.312,0.14,1.772-0.024l3.176-0.164c0.3,0.024,3.684,0.416,4.008,0.468
				c0.636,0.112,2.208,0.42,2.452,0.484c0.576,0.164,4.584,1.572,4.992,1.736l2.524,1.016l2.144,0.696l1.004,0.22l1.632,0.044
				c-1.64,1.024-2.624,2.56-3.564,4.016l-1.296,2.112l-1.196,1.616c-0.916,1.256-1.832,2.516-2.836,3.696
				c-0.848,0.992-1.896,1.976-3.296,3.1c-0.824,0.652-1.708,1.228-2.628,1.824l-2.34,1.564l1.616,3.428l0.552,1.844
				c0.08,0.284,0.512,2.292,0.652,2.988c0.048,0.264,0.264,2.068,0.348,2.84c0.04,0.372,0.092,2.476,0.1,3.14l-0.288,3.852
				l-0.036,3.636l0.016,0.248c-0.004,0.008-0.008,0.012-0.016,0.02c0.004,0.004,0.012,0.008,0.016,0.012l0.032,0.544l0.52,1.672
				l-1.296-0.856L86.66,143.2c-0.684-0.164-2.464-0.612-2.624-0.656c-0.628-0.2-2.14-0.744-2.516-0.912l-2.052-0.884l-2.256-1.264
				l-3.568-2.5l-1.784-2.008l-5.54,4.236l-1.76,0.988c-1.368,0.616-7.976,2.936-9.048,3.216L54.364,143.696z M55.568,161.544
				c0-0.152,0.008-0.288,0.008-0.436c3.464,3.064,6.98,6.04,10.524,8.916c-3.22,1.888-6.456,3.692-9.708,5.396
				C55.876,171.04,55.568,166.456,55.568,161.544z M57.66,183.48c-0.432-2.092-0.82-4.236-1.112-6.468
				c3.616-1.884,7.212-3.884,10.78-5.996c1.812,1.46,3.612,2.892,5.416,4.296c-4.924,2.972-9.92,5.724-14.96,8.288L57.66,183.48z
				 M58.228,186.088l14.62,14.248c-1.916,1.144-3.84,2.272-5.78,3.372L63.2,199.94C61.124,195.752,59.448,191.152,58.228,186.088z
				 M65.696,204.508c-0.048-0.076-0.104-0.144-0.152-0.22l0.2,0.192C65.728,204.488,65.712,204.5,65.696,204.508z M66.54,205.736
				c0.104-0.056,0.208-0.12,0.312-0.18l4.796,4.672c-0.392,0.224-0.772,0.46-1.164,0.68
				C69.068,209.284,67.752,207.564,66.54,205.736z M71.468,212.024c0.424-0.24,0.84-0.496,1.26-0.736l8.588,8.368
				c0.528,0.516,1.084,1.032,1.616,1.548C78.572,218.676,74.776,215.592,71.468,212.024z M87.564,223.596
				c-1.748-1.664-3.512-3.328-5.216-4.996l-8.296-8.084c1.928-1.12,3.872-2.216,5.776-3.376l7.084,6.904
				c3.064,2.988,6.22,5.992,9.432,8.96c-1.348,0.832-2.7,1.664-4.068,2.48C90.664,224.896,89.068,224.288,87.564,223.596z
				 M101.9,228.216c-1.072-0.256-2.156-0.512-3.248-0.752c-1.564-0.408-3.136-0.812-4.612-1.304c1.164-0.696,2.296-1.42,3.444-2.132
				c1.572,1.432,3.124,2.892,4.748,4.264C102.12,228.272,102.008,228.244,101.9,228.216z M98.752,223.248
				c7.196-4.5,14.124-9.216,20.744-14.028c1.888,1.304,3.744,2.592,5.668,3.892c-6.776,4.988-13.888,9.912-21.288,14.608
				C102.144,226.268,100.436,224.776,98.752,223.248z M124.892,230.544c-7.12,0-13.616-0.592-19.624-1.648
				c-0.072-0.06-0.144-0.124-0.216-0.184c7.452-4.748,14.608-9.716,21.42-14.744c5.584,3.748,11.34,7.408,17.208,10.976
				c-2.708,1.716-5.452,3.4-8.236,5.044C132.048,230.316,128.564,230.544,124.892,230.544z M138.952,229.6
				c2.068-1.252,4.128-2.508,6.152-3.796c1.116,0.672,2.224,1.36,3.352,2.02C145.436,228.584,142.252,229.16,138.952,229.6z
				 M150.368,227.264c-1.316-0.768-2.596-1.576-3.9-2.356c1.996-1.288,3.984-2.58,5.932-3.892c2,1.172,4.02,2.308,6.044,3.44
				C155.88,225.536,153.188,226.472,150.368,227.264z M159.964,223.604c-2.084-1.152-4.16-2.316-6.216-3.516
				c5.556-3.784,10.912-7.66,16.076-11.556c1.936,1.24,3.892,2.44,5.856,3.64C170.632,216.008,165.4,219.84,159.964,223.604z
				 M180.332,208.228c-0.356,0.444-0.764,0.836-1.132,1.268c-0.74,0.572-1.52,1.148-2.272,1.724c-1.96-1.192-3.904-2.412-5.84-3.644
				c1.844-1.4,3.66-2.8,5.452-4.196c1.636,1.028,3.268,2.076,4.912,3.064C181.076,207.036,180.704,207.632,180.332,208.228z
				 M182.416,205.288c-1.552-0.932-3.092-1.912-4.636-2.88c3.724-2.924,7.324-5.82,10.804-8.676
				C186.9,197.932,184.84,201.788,182.416,205.288z M189.732,190.88c-4.244,3.504-8.676,7.084-13.288,10.7
				c-6.344-4.016-12.6-8.248-18.648-12.492c5.364-4.5,10.836-9.208,16.272-14.112c5.788,3.264,11.64,6.436,17.58,9.452
				C191.1,186.656,190.456,188.804,189.732,190.88z M191.944,182.936c-5.648-2.872-11.208-5.888-16.716-8.988
				c1.66-1.508,3.288-3.076,4.932-4.624c4.296,2.392,8.636,4.724,13.016,6.98C192.848,178.588,192.428,180.788,191.944,182.936z
				 M193.356,174.72c-4.06-2.092-8.084-4.244-12.072-6.46c4.36-4.148,8.668-8.392,12.784-12.856c0.004-0.14,0.004-0.28,0.004-0.42
				c0.008-0.568,0.024-1.136,0.02-1.704c0-0.012,0-0.028,0-0.04c-0.008,0.008-0.016,0.016-0.024,0.024
				c-1.88-1.124-3.712-2.34-5.58-3.492c0.256-0.276,0.528-0.536,0.784-0.812c1.12-1.232,2.324-2.616,3.572-4.068
				c0.32,0.196,0.632,0.408,0.952,0.604c-0.044-0.612-0.084-1.22-0.136-1.832c-0.048-0.6-0.088-1.2-0.144-1.804
				c-0.332,0.392-0.628,0.728-0.948,1.104c-5.088-3.144-10.104-6.408-15.076-9.744c4.752-4.128,9.424-8.376,13.98-12.764
				c2.348,14.16,2.74,29,2.74,41.08C194.212,166.172,193.884,170.532,193.356,174.72z"/>
			<path d="M83.008,111.42c-0.696-0.384-1.528-0.556-2.396-0.556c-2.496,0-5.316,1.416-6.248,3.292
				c0.684,0.364,1.528,0.532,2.428,0.532C79.192,114.688,81.972,113.464,83.008,111.42z M76.32,113.536
				c1.08-0.9,2.756-1.536,4.288-1.536c0.168,0,0.328,0.008,0.488,0.024c-1.06,0.92-2.692,1.532-4.308,1.532
				C76.628,113.556,76.472,113.548,76.32,113.536z"/>
			<path d="M68.652,113.944c-0.944-1.892-3.764-3.192-6.216-3.192c-0.908,0-1.764,0.176-2.456,0.568
				c0.992,1.86,3.76,3.216,6.208,3.216C67.088,114.536,67.944,114.352,68.652,113.944z M61.944,111.908
				c0.16-0.012,0.324-0.02,0.492-0.02c1.572,0,3.236,0.608,4.296,1.484c-0.176,0.02-0.36,0.028-0.548,0.028
				C64.664,113.4,63.028,112.788,61.944,111.908z"/>
			<path d="M69.792,117.148c-3.108,0.92-5.688,5.048-4.84,7.664C67.644,124.476,70.528,119.964,69.792,117.148z M67.564,121.504
				c-0.48,0.708-1.044,1.292-1.6,1.68c0.084-0.548,0.288-1.152,0.6-1.752c0.524-0.992,1.284-1.864,2.116-2.468
				C68.512,119.776,68.128,120.668,67.564,121.504z"/>
			<path d="M78.636,124.272c0.068,0,0.14-0.004,0.208-0.008c0.348-2.852-2.804-6.772-5.696-7.016
				C72.888,120.244,76.116,124.272,78.636,124.272z M76.324,120.484c0.612,0.752,1.052,1.576,1.264,2.336
				c-0.48-0.26-0.992-0.672-1.472-1.196c-0.76-0.832-1.336-1.82-1.628-2.752C75.128,119.244,75.768,119.8,76.324,120.484z"/>
			<path d="M71.556,102.78c-2.14,1.964-2.176,7.176,0.016,9.096C73.616,109.6,73.628,105.032,71.556,102.78z M71.072,107.444
				c-0.012-0.948,0.156-1.86,0.448-2.592c0.608,1.5,0.608,3.46-0.004,4.972C71.244,109.152,71.084,108.328,71.072,107.444z"/>
			<path d="M68.092,135.648l3.552-2.692l0.652,0.7l1.08,0.872l1.704,1.084c0.088,0.06,0.176,0.12,0.316,0.216l1.504,0.832
				l1.604,0.708c0.216,0.124,1.676,0.656,2.14,0.804c0.164,0.048,1.552,0.404,2.076,0.536c0.112,0.032,0.724,0.188,1.268,0.324
				l0.792,0.216l1.86,0.684c0.164,0.108,0.328,0.22,0.492,0.328l1.16,0.796h0.952l0.96-1.028l0.024-0.856l-0.516-1.5l-0.036-0.548
				l0.012-2.012l0.236-3.632c0-0.612-0.048-2.472-0.084-2.748c-0.06-0.568-0.248-2.156-0.28-2.328
				c-0.112-0.584-0.46-2.216-0.528-2.464l-0.444-1.536l-0.704-1.556c0.196-0.132,0.388-0.26,0.58-0.392
				c0.752-0.5,1.464-0.976,2.144-1.536c1.156-0.944,2.024-1.78,2.732-2.636c0.792-0.956,1.52-1.976,2.224-2.964
				c0.3-0.42,0.596-0.84,0.932-1.3l1.06-1.764c0.664-1.064,1.284-2.064,2.332-2.656c0.484-0.276,0.776-0.64,0.864-1.076
				c0.096-0.476-0.068-0.996-0.484-1.544l-0.412-0.28l-2.084-0.1l-3.864-1.404c-0.276-0.116-3.44-1.26-3.948-1.404
				c-0.192-0.064-1.584-0.344-2.048-0.424c-0.28-0.048-2.96-0.364-3.252-0.388l-2.788,0.148l-0.224,0.064
				c-0.02,0.008-0.048,0.02-0.072,0.028c-0.288-0.896-2.216-6.728-3.616-8.864c-0.488-0.916-1.644-2.44-2.592-3.636
				c-0.088-0.112-0.26-0.312-0.468-0.548c-0.432-0.504-1.088-1.26-1.344-1.644l-0.532-1.644l-0.644-0.74l-0.152-0.036
				c-1.08-0.296-1.844,0.156-2.224,1.324c-0.152,0.472-0.392,0.928-0.64,1.412c-0.108,0.216-0.224,0.428-0.26,0.544
				c-0.892,1.128-5.036,7.056-6.54,10.144c-0.384,0.744-0.516,1.34-0.644,1.92c-0.064,0.272-0.12,0.552-0.232,0.928l-0.128,0.808
				l-2.36-0.216l-3.54,0.296c-0.928,0.196-5.576,1.62-6.632,2.036c-0.284,0.112-2.912,0.996-3.916,1.296l-0.588-0.012
				c-0.644,0.012-1.3,0.084-1.712,0.536c-0.388,0.42-0.396,1.02-0.36,1.492l0.016,0.184l0.492,0.584l1.04,0.704l4.284,6.364
				c0.092,0.128,0.188,0.256,0.296,0.4l0.928,1.128l2.788,2.756l1.44,1.108l1.584,0.96c-0.1,0.136-0.208,0.296-0.204,0.416
				l-1.084,3.148l-0.628,3.44l-0.156,2.732l0.316,5.776c0.016,0.936-0.008,1.708-0.436,2.376l-0.18,1.016l1.148,1.368l1.144-0.104
				l0.144-0.144c0.82-0.848,1.908-1.376,3.54-1.724c0.308-0.076,0.616-0.152,0.916-0.236c0.916-0.236,6-2.068,7.2-2.624
				L68.092,135.648z M59.572,137.78l-0.888,0.224c-1.2,0.252-2.716,0.696-3.952,1.892L54.6,139.9l-0.468-0.54l0.02-0.16
				c0.58-0.98,0.564-2.084,0.548-2.912l-0.304-5.096l-0.016-0.624l0.12-2.136l0.444-2.884l1.252-4.012
				c0.02-0.04,0.056-0.08,0.088-0.12c0.14-0.188,0.384-0.504,0.272-0.916c-0.112-0.432-0.556-0.616-0.632-0.648l-1.144-0.66
				l-0.94-0.672l-1.808-1.564l-2.568-2.804c-0.088-0.112-0.176-0.236-0.248-0.34l-2.768-4.4l-1.108-1.54l-0.608-0.636l-0.952-0.632
				l-0.204-0.244c-0.008-0.336,0.052-0.436,0.08-0.468c0.052-0.056,0.236-0.152,0.864-0.164l0.752,0.02l0.084-0.028
				c0.924-0.268,3.752-1.216,4.1-1.356c0.996-0.392,5.576-1.796,6.392-1.972l2.7-0.276l2.376,0.112l1.592,0.284l0.284-1.88
				c0.1-0.328,0.168-0.632,0.236-0.932c0.124-0.56,0.236-1.04,0.552-1.66c1.388-2.844,5.4-8.656,6.484-10.056
				c0.096-0.208,0.208-0.416,0.312-0.616c0.26-0.504,0.532-1.024,0.712-1.584c0.2-0.596,0.396-0.672,0.72-0.608l0.188,0.188
				l0.488,1.512l0.192,0.372c0.216,0.328,0.752,0.948,1.376,1.672c0.196,0.228,0.36,0.416,0.496,0.584
				c1.212,1.532,2.076,2.736,2.448,3.436c1.432,2.188,3.524,8.676,3.548,8.744c0.096,0.304,0.268,0.52,0.512,0.636
				c0.36,0.168,0.708,0.056,1.016-0.064l2.564-0.14c0.196,0.02,2.86,0.336,3.092,0.376c0.524,0.092,1.76,0.352,1.916,0.396
				c0.476,0.132,3.616,1.268,3.84,1.364l1.88,0.776l1.596,0.536l0.664,0.156l1.812,0.048l0.004,0.004
				c0.22,0.316,0.22,0.476,0.208,0.536c-0.028,0.132-0.212,0.252-0.316,0.316c-1.292,0.736-2.024,1.908-2.756,3.084l-1.016,1.696
				c-0.308,0.416-0.608,0.844-0.912,1.264c-0.692,0.972-1.408,1.976-2.176,2.904c-0.66,0.796-1.476,1.584-2.576,2.484
				c-0.636,0.524-1.324,0.98-2.056,1.468c-0.324,0.216-0.656,0.436-0.988,0.668l-0.392,0.268l0.92,2.012l0.564,1.768
				c0.06,0.228,0.4,1.812,0.508,2.38c0.028,0.176,0.204,1.636,0.268,2.244c0.024,0.196,0.076,1.92,0.072,2.624l-0.212,2.92
				l-0.032,2.752l0.04,0.656l0.504,1.532l-0.004,0.164l-0.332,0.412h-0.108l-0.876-0.6c-0.188-0.128-0.376-0.248-0.568-0.376
				l-1.664-0.632l-1.272-0.38c-0.536-0.136-1.136-0.288-1.26-0.324c-0.52-0.128-1.884-0.484-2.036-0.524
				c-0.516-0.164-1.744-0.624-1.948-0.728l-3.024-1.488c-0.1-0.076-0.204-0.144-0.312-0.216l-0.72-0.44l-1.9-1.392l-1.264-1.424
				l-3.892,3.048l-1.384,0.792C65.448,135.744,60.432,137.552,59.572,137.78z"/>
		</g>
	</g>
</g>
<g>
</g>
<g>
</g>
<g>
</g>
<g>
</g>
<g>
</g>
<g>
</g>
<g>
</g>
<g>
</g>
<g>
</g>
<g>
</g>
<g>
</g>
<g>
</g>
<g>
</g>
<g>
</g>
<g>
</g>
</svg>
