<?xml version="1.0" encoding="iso-8859-1"?>
<!-- Generator: Adobe Illustrator 19.0.0, SVG Export Plug-In . SVG Version: 6.00 Build 0)  -->
<svg version="1.1" id="Layer_1" xmlns="http://www.w3.org/2000/svg" xmlns:xlink="http://www.w3.org/1999/xlink" x="0px" y="0px"
	 viewBox="0 0 245.096 245.096" style="enable-background:new 0 0 245.096 245.096;" xml:space="preserve">
<g>
	<g>
		<g>
			<path d="M201.848,9.572c-16.688,0-31.168,9.516-38.376,23.396c-15.26-1.848-32.364-2.66-46.644-2.66
				c-40.268,0-80.984,5.644-84.52,16.448c-0.436,0.356-0.74,0.868-0.756,1.476c-0.036,1.236-0.692,30.384,15.212,47.132
				c6.924,7.296,15.96,11.24,26.86,11.736v6.932c0,16.564,15.012,30.304,34.564,32.824c2.752,8.96,2.548,39.72,2.008,56.912
				c-5.98-1.988-10.804-6.168-13.216-12.716c0.16-0.86,0.348-1.716,0.572-2.576c1.392-0.676,2.724-1.448,3.908-2.436
				c3.472-2.896,7.024-8.18,2.216-11.456c-0.128-0.088-0.252-0.116-0.38-0.156c-0.496-0.772-1.8-1.084-2.472-0.068
				c-2.612,3.96-4.424,7.888-5.608,11.828c-0.684,0.336-1.244,0.584-1.532,0.68c-4.308,1.472-8.824,2.216-13.256,3.24
				c-1.344-0.352-27.54-6.964-49.216,1.98C9.296,201.124,0.916,222.34,0.568,223.24L0,224.72l1.532,0.4
				c0.672,0.176,10.516,2.692,23.008,2.688c8.228,0,17.6-1.088,26.248-4.66C70.54,215,79.276,197,81.064,192.868
				c4.248-0.956,8.96-1.624,13.252-3.068c-2.004,9.856-0.308,19.88,2.908,30.752c-6.612,1.5-9.864,3.636-9.864,6.508
				c0,6.68,19.072,8.464,30.336,8.464c11.264,0,30.332-1.784,30.332-8.464c0-0.128-0.04-0.248-0.06-0.372
				c5.296-1.448,9.084-3.768,9.368-3.948l1.028-0.652l-0.488-1.116c-0.272-0.624-6.872-15.376-18.948-19.792
				c-4.716-1.72-9.492-1.584-13.612-0.764c-0.26-17.392-0.044-44.404,2.028-53.58c19.488-2.568,34.428-16.28,34.428-32.808v-6.932
				c12.768-0.576,21.652-5.764,27.856-12.832c3.88,1.148,7.972,1.796,12.22,1.796c23.848,0,43.248-19.4,43.248-43.244
				C245.096,28.972,225.696,9.572,201.848,9.572z M102.416,177.184c2.556,1.976-0.292,4.76-3.452,6.856
				C99.852,181.76,101.012,179.476,102.416,177.184z M32.292,194.708c16.812-6.94,37.116-3.956,44.552-2.488L4.148,222.204
				C6.796,216.748,15.376,201.684,32.292,194.708z M5.156,223.016l13.856-5.716l-1.868,7.324
				C12.028,224.232,7.78,223.532,5.156,223.016z M18.3,224.704l2.028-7.944l8.836-3.644l-2.624,11.776
				C23.644,224.952,20.876,224.872,18.3,224.704z M27.712,224.856l2.732-12.268l10.62-4.38l-2.508,15.516
				C34.884,224.388,31.228,224.732,27.712,224.856z M49.976,220.412c-0.088,0.036-0.172,0.084-0.26,0.12
				c-3.236,1.336-6.6,2.292-9.98,2.972l2.556-15.804l11.344-4.68L49.976,220.412z M51.256,219.828l3.648-17.328l10.6-4.372
				l-2.436,14.136C59.736,215.116,55.812,217.752,51.256,219.828z M64.424,211.052l2.316-13.44l11.124-4.588
				C76.14,196.588,71.884,204.216,64.424,211.052z M116.828,34.124c17.46,0,32.544,0.964,44.972,2.452
				c-0.396,0.972-0.76,1.96-1.088,2.964c-13.044-1.544-28.088-2.36-42.832-2.36c-36.832,0-75.836,4.964-79.552,14.188
				c-1.596-1.064-2.476-2.108-2.476-3.08C35.848,42.496,64.684,34.124,116.828,34.124z M159.284,60.112
				c-12.124,1.32-26.432,2.144-42.42,2.144c-40.068,0-66.44-4.912-76.584-9.792c1.136-6.28,32.64-13.12,77.6-13.12
				c16.068,0,30.376,0.884,42.244,2.296c-0.956,3.572-1.516,7.304-1.516,11.176C158.604,55.308,158.872,57.732,159.284,60.112z
				 M35.712,54.328c9.156,6.248,32.28,9.916,57.656,11.292c1.372,0.076,2.756,0.148,4.144,0.208
				c0.376,0.016,0.748,0.032,1.124,0.048c5.988,0.256,12.092,0.392,18.192,0.392c3.928,0,8.072-0.064,12.332-0.188
				c0.264-0.008,0.524-0.016,0.788-0.024c1.472-0.048,2.96-0.1,4.452-0.164c11.992-0.484,23.712-1.464,34.052-2.924
				c0.388-0.056,0.772-0.108,1.156-0.168c1.74-0.256,3.432-0.524,5.08-0.804c0.292-0.052,0.592-0.096,0.884-0.148
				c0.956-0.168,1.884-0.34,2.804-0.52c0.176-0.032,0.348-0.068,0.52-0.104c9.056-1.776,16.38-4.004,20.764-6.692
				c-0.14,2.052-0.396,4.544-0.804,7.26c-8.4,5.68-38.784,10.856-80.968,10.856c-42.92,0-73.656-5.356-81.412-11.156
				C36.096,58.82,35.84,56.344,35.712,54.328z M200.444,73.404l0.096,8.352c0.004,0.016,0.108,1.676-0.836,2.588
				c-0.544,0.524-1.384,0.716-2.432,0.588c-0.476-0.06-0.872-0.108-1.276-0.164C197.9,81.052,199.352,77.184,200.444,73.404z
				 M199.852,48.536l-17.34-17.112c-0.012-0.008-1.244-1.096-1.216-2.412c0.012-0.764,0.452-1.5,1.312-2.18
				c3.372-2.672,4.392-3.48,8.112-4.7c1.448-0.476,3.204-0.76,4.832-0.76c1.604,0,3.084,0.28,4.012,0.928
				c0.636,0.444,0.96,1.028,0.984,1.78c0.112,3.208-0.324,19.44-0.468,24.476c-0.072-0.02-0.148-0.028-0.224-0.044
				C199.864,48.52,199.856,48.528,199.852,48.536z M197.132,86.06c0.26,0.032,0.516,0.048,0.752,0.048
				c1.08,0,1.952-0.316,2.604-0.944c1.344-1.292,1.192-3.408,1.184-3.456l-0.144-12.444c0.268-1.152,0.496-2.276,0.704-3.38
				c-0.156,6.344-0.304,13.62-0.232,15.708c0.036,1.1,0.544,2.024,1.468,2.668c1.136,0.796,2.86,1.128,4.688,1.128
				c1.768,0,3.636-0.312,5.16-0.812c3.916-1.288,5.064-2.192,8.46-4.888c1.136-0.904,1.724-1.928,1.748-3.048
				c0.032-1.864-1.548-3.236-1.584-3.268l-18.32-18.084c0.04-0.548,0.072-1.068,0.1-1.56l0.492,0.528
				c0.612,0.66,15.104,16.176,17.868,18.788c0.636,0.6,1.404,0.908,2.248,0.908c0.208,0,0.42-0.016,0.636-0.056
				c2.692-0.472,5.732-3.864,7.224-6.816c1.864-3.7,2.04-5.164,2.56-9.5c0.172-1.456-0.132-2.608-0.916-3.416
				c-1.288-1.328-3.344-1.176-3.404-1.164l-26.684,0.316c0.02-0.42,0.04-0.824,0.052-1.196l0.736,0.02
				c0.812,0.024,18.228,0.536,24.296,0.536c0.624,0,1.128-0.004,1.484-0.016c1.076-0.036,1.98-0.536,2.616-1.44
				c1.584-2.248,1.36-6.824,0.344-9.988c-1.264-3.948-2.164-5.108-4.832-8.552c-0.896-1.152-1.912-1.744-3.024-1.764
				c-0.02,0-0.04,0-0.06,0c-1.82,0-3.156,1.568-3.184,1.604l-18.36,18.996c0.016-0.604,0.028-1.156,0.032-1.6
				c0-0.012-0.008-0.028-0.008-0.04c2.84-2.708,15.676-14.98,18.024-17.52c0.74-0.8,1.028-1.812,0.832-2.92
				c-0.476-2.712-3.828-5.768-6.744-7.268c-3.664-1.892-5.108-2.068-9.404-2.592c-1.428-0.172-2.564,0.124-3.36,0.896
				c-1.344,1.292-1.188,3.408-1.18,3.456l0.276,24.032c-0.356-0.084-0.72-0.056-1.056,0.056c0.156-5.612,0.56-20.796,0.448-23.968
				c-0.036-1.1-0.544-2.024-1.468-2.668c-2.24-1.572-6.752-1.332-9.844-0.316c-3.916,1.284-5.064,2.192-8.464,4.892
				c-1.136,0.9-1.724,1.924-1.748,3.048c-0.032,1.864,1.548,3.236,1.584,3.268l17.608,17.384c-0.188,0.252-0.5,0.508-0.788,0.76
				c-3.3-3.544-14.532-15.576-16.932-17.852c-0.788-0.748-1.788-1.04-2.88-0.852c-2.692,0.468-5.736,3.856-7.228,6.808
				c-1.88,3.708-2.056,5.168-2.58,9.5c-0.176,1.456,0.128,2.604,0.908,3.416c1.028,1.068,2.56,1.18,3.152,1.18
				c0.144,0,0.236-0.004,0.244-0.008l22.14-0.224c-0.688,0.32-1.476,0.64-2.296,0.956c-6.788-0.184-17.172-0.436-19.724-0.344
				c-1.08,0.036-1.984,0.536-2.62,1.44c-0.748,1.064-1.056,2.664-1.1,4.372c-1.096,0.164-2.248,0.316-3.396,0.472
				c-0.392-2.1-0.676-4.236-0.676-6.448c0-19.996,16.264-36.264,36.26-36.264c19.996,0,36.264,16.268,36.264,36.264
				c0,19.996-16.268,36.264-36.264,36.264c-2.664,0-5.228-0.384-7.728-0.94c0.46-0.756,0.904-1.52,1.32-2.296
				C195.964,85.912,196.5,85.984,197.132,86.06z M203.604,56.864l17.568,17.34c0.012,0.008,1.244,1.096,1.216,2.412
				c-0.012,0.764-0.452,1.5-1.312,2.18c-3.372,2.668-4.388,3.476-8.108,4.7c-2.88,0.94-6.972,1.14-8.848-0.168
				c-0.636-0.448-0.96-1.028-0.984-1.78C203.024,78.3,203.472,61.676,203.604,56.864z M203.984,21.28
				c0.432-0.416,1.048-0.624,1.82-0.624c0.192,0,0.4,0.012,0.608,0.04c4.252,0.52,5.54,0.676,9.028,2.476
				c2.708,1.396,5.744,4.192,6.144,6.46c0.132,0.768-0.048,1.408-0.556,1.952c-2.192,2.372-14.116,13.784-17.592,17.104
				c-0.004-0.004-0.004-0.004-0.008-0.008l-0.284-24.804C203.144,23.856,203.032,22.196,203.984,21.28z M205.916,54.416
				l24.564-0.292c0.024,0.004,1.632-0.116,2.536,0.828c0.532,0.552,0.732,1.388,0.6,2.488c-0.516,4.304-0.672,5.6-2.448,9.124
				c-1.388,2.748-4.16,5.82-6.404,6.212c-0.756,0.14-1.372-0.052-1.908-0.556C220.508,69.996,209.176,57.9,205.916,54.416z
				 M205.848,51.04l17.168-17.768c0.012-0.012,1.068-1.228,2.344-1.228c0.012,0,0.024,0,0.036,0c0.752,0.012,1.476,0.46,2.148,1.328
				c2.648,3.416,3.444,4.444,4.652,8.204c0.94,2.94,1.128,7.108-0.192,8.988c-0.436,0.62-1.004,0.936-1.732,0.96
				C227.056,51.64,210.596,51.176,205.848,51.04z M197.676,51.104c-0.052,0.036-0.116,0.068-0.168,0.104l-24.304,0.248
				c-0.004-0.004-1.628,0.112-2.532-0.832c-0.528-0.552-0.728-1.388-0.592-2.488c0.52-4.296,0.676-5.592,2.46-9.124
				c1.392-2.744,4.168-5.812,6.412-6.2c0.156-0.024,0.304-0.04,0.448-0.04c0.556,0,1.036,0.196,1.456,0.6
				C183.188,35.584,194.316,47.5,197.676,51.104z M190.068,54.38c-4.892,1.56-11.396,3.008-19.284,4.232
				c0.056-1.42,0.316-2.708,0.9-3.54c0.436-0.62,1.004-0.936,1.736-0.96c0.344-0.012,0.84-0.016,1.456-0.016
				C178.104,54.096,184.604,54.24,190.068,54.38z M96.388,195.744c3.12,5.448,7.924,8.976,13.716,10.752
				c-0.176,4.788-0.364,8.108-0.496,8.928c-0.744,2.32-2.592,2.828-6.076,3.596c-1.236,0.272-2.492,0.568-3.532,0.928
				C97.476,211.448,95.868,203.516,96.388,195.744z M117.696,231.528c-16.052,0-25.556-2.96-26.364-4.304
				c0.24-0.484,2.328-2.008,9.352-3.32c1.24-0.436,2.5-0.712,3.712-0.98c3.536-0.78,7.544-1.664,9.02-6.276
				c0.16-0.5,0.376-3.54,0.576-8.108c2.196,4.212,8.352,14.404,18.044,17.948c2.672,0.976,5.364,1.356,7.944,1.356
				c1.104,0,2.184-0.076,3.24-0.2C140.512,229.316,131.56,231.528,117.696,231.528z M121.356,201.452
				c-3.532,1.144-6.16,2.556-7.216,3.172c0.576-16.708,0.772-46.072-1.744-57.408c0.744,0.032,1.484,0.092,2.236,0.092h6.12
				c0.82,0,1.624-0.06,2.432-0.1C121.228,158.068,121.06,184.484,121.356,201.452z M133.012,223.828
				c-8.472-3.092-14.132-12.2-16.304-16.248l37.436,13.68C150.536,223.108,141.5,226.936,133.012,223.828z M154.252,220.088
				l-6.208-2.268l3.236-2.56C152.596,217.156,153.58,218.84,154.252,220.088z M150.608,214.344l-3.816,3.02l-4.232-1.544
				l5.504-4.596C148.996,212.264,149.852,213.308,150.608,214.344z M147.304,210.38l-5.972,4.988l-5.204-1.9l7.18-6.62
				C144.764,207.92,146.1,209.108,147.304,210.38z M137.948,203.844c1.58,0.576,3.024,1.416,4.408,2.34l-7.424,6.844l-5.576-2.04
				l8.44-7.188C137.844,203.82,137.896,203.824,137.948,203.844z M136.46,203.452l-8.328,7.092l-5.188-1.896l6.468-5.864
				C131.7,202.628,134.08,202.808,136.46,203.452z M127.544,202.948l-5.804,5.26l-4.928-1.8
				C118.932,205.324,122.888,203.604,127.544,202.948z M160.528,103.132c-0.084,0-0.164,0.008-0.248,0.02l-0.536,0.004
				c-1.092,0.012-1.976,0.904-1.976,2v8.868c0,16.144-16.604,29.276-37.016,29.276h-6.12c-20.412,0-37.012-13.132-37.012-29.276
				v-8.336c5.756,0.476,12.62,0.892,18.952,0.892c2.588,0,5.088-0.072,7.392-0.236l-0.164-2.26
				c-8.304,0.584-19.304-0.08-27.52-0.792c-0.2-0.072-0.408-0.132-0.636-0.136l-0.532-0.004c-0.084-0.012-0.168-0.02-0.248-0.02
				c-0.444-0.012-0.86-0.06-1.296-0.084c-1.568-0.148-2.964-0.292-4.18-0.42c-7.86-1.18-14.492-4.516-19.724-10.028
				c-7.96-8.384-11.432-20.236-12.952-29.576C47.544,69.836,83.208,73.78,117.9,73.78c34.22,0,69.384-3.84,80.728-10.48
				C195.948,79.308,187.44,102.52,160.528,103.132z M201.848,92.092c-3.292,0-6.48-0.44-9.532-1.212
				c0.404-0.568,0.784-1.148,1.16-1.732c2.7,0.632,5.48,1.064,8.372,1.064c20.62,0,37.4-16.776,37.4-37.396
				s-16.776-37.396-37.4-37.396c-20.624,0-37.396,16.776-37.396,37.396c0,2.264,0.284,4.448,0.684,6.6
				c-0.628,0.084-1.228,0.172-1.872,0.248c-0.408-2.232-0.692-4.5-0.692-6.848c0-21.656,17.616-39.276,39.272-39.276
				s39.276,17.62,39.276,39.276S223.504,92.092,201.848,92.092z"/>
			<path d="M55.752,62.824c-0.084,0.084-0.168,0.168-0.248,0.248c-1.292,1.292,0.712,3.296,2.004,2.004
				c0.084-0.084,0.168-0.168,0.248-0.248C59.048,63.536,57.044,61.532,55.752,62.824z"/>
			<path d="M65.252,65.66c-0.084,0-0.168,0-0.248,0c-1.824,0-1.828,2.836,0,2.836c0.084,0,0.168,0,0.248,0
				C67.076,68.496,67.08,65.66,65.252,65.66z"/>
			<path d="M81.004,66.908c-0.084,0-0.168,0-0.248,0c-1.824,0-1.828,2.836,0,2.836c0.084,0,0.168,0,0.248,0
				C82.828,69.744,82.832,66.908,81.004,66.908z"/>
			<path d="M100.324,69.144c-0.084,0-0.168,0-0.248,0c-1.824,0-1.828,2.836,0,2.836c0.084,0,0.168,0,0.248,0
				C102.148,71.98,102.152,69.144,100.324,69.144z"/>
			<path d="M144.756,69.58c0.084-0.084,0.168-0.168,0.248-0.248c1.292-1.292-0.712-3.296-2.004-2.004
				c-0.084,0.084-0.168,0.168-0.248,0.248C141.46,68.868,143.464,70.872,144.756,69.58z"/>
			<path d="M164.252,67.744c0.084,0,0.168,0,0.248,0c1.824,0,1.828-2.836,0-2.836c-0.084,0-0.168,0-0.248,0
				C162.428,64.908,162.428,67.744,164.252,67.744z"/>
			<path d="M125.608,70.036c0.084-0.084,0.168-0.168,0.248-0.248c1.292-1.292-0.712-3.3-2.004-2.004
				c-0.084,0.084-0.168,0.168-0.248,0.248C122.312,69.324,124.316,71.328,125.608,70.036z"/>
			<path d="M40.184,59.028c-0.084,0.084-0.168,0.168-0.248,0.248c-1.292,1.292,0.712,3.296,2.004,2.004
				c0.084-0.084,0.168-0.168,0.248-0.248C43.48,59.74,41.476,57.736,40.184,59.028z"/>
			<path d="M176.94,66.784c0.084-0.084,0.168-0.168,0.248-0.248c1.292-1.292-0.712-3.296-2.004-2.004
				c-0.084,0.084-0.168,0.168-0.248,0.248C173.644,66.072,175.648,68.076,176.94,66.784z"/>
			<path d="M191.816,63.532c0.084-0.084,0.168-0.168,0.248-0.248c1.292-1.292-0.712-3.296-2.004-2.004
				c-0.084,0.084-0.168,0.168-0.248,0.248C188.52,62.82,190.524,64.824,191.816,63.532z"/>
		</g>
	</g>
</g>
<g>
</g>
<g>
</g>
<g>
</g>
<g>
</g>
<g>
</g>
<g>
</g>
<g>
</g>
<g>
</g>
<g>
</g>
<g>
</g>
<g>
</g>
<g>
</g>
<g>
</g>
<g>
</g>
<g>
</g>
</svg>
