<?xml version="1.0" encoding="iso-8859-1"?>
<!-- Generator: Adobe Illustrator 19.0.0, SVG Export Plug-In . SVG Version: 6.00 Build 0)  -->
<svg version="1.1" id="Layer_1" xmlns="http://www.w3.org/2000/svg" xmlns:xlink="http://www.w3.org/1999/xlink" x="0px" y="0px"
	 viewBox="0 0 294.2 294.2" style="enable-background:new 0 0 294.2 294.2;" xml:space="preserve">
<g>
	<g>
		<g>
			<path d="M241.496,236.224c-0.156-11.856-0.312-23.712-0.328-35.572c-0.008-4.492,0.064-8.98,0.128-13.468
				c0.096-6.384,0.2-12.984,0.076-19.488c-0.176-8.896-0.936-20.544-5.32-31.792c-2.916-7.484-6.1-14.916-9.188-22.104
				c-1.86-4.332-2.7-8.504-2.564-12.76c0.14-4.528-0.748-7.648-2.792-9.816c-0.092-0.096-0.212-0.16-0.304-0.248
				c1.836-1.104,3.084-3.092,3.084-5.388v-1.132c0-1.672-0.668-3.188-1.736-4.316c1.068-1.128,1.736-2.644,1.736-4.316v-1.132
				c0-3.476-2.828-6.3-6.3-6.3h-12.332l0.748-10.7l0.204-0.04c-0.08-0.056-0.112-0.156-0.184-0.22l3.844-55.168l0.096-1.416
				L198.228,0l-0.704,10.092l-0.048,0.012c0.024,0.024,0.02,0.06,0.04,0.084l-4.064,58.208H154.28c-3.472,0-6.3,2.828-6.3,6.3v1.132
				c0,1.672,0.668,3.188,1.736,4.316c-1.068,1.128-1.736,2.644-1.736,4.316v1.132c0,2.292,1.244,4.284,3.084,5.388
				c-0.092,0.092-0.216,0.156-0.304,0.248c-2.048,2.168-2.932,5.284-2.792,9.816c0.136,4.252-0.704,8.428-2.568,12.76
				c-3.084,7.188-6.268,14.62-9.184,22.104c-2.784,7.148-4.064,14.416-4.704,21.076c-1.752-1.16-3.668-2.26-5.572-3.34
				c-3.752-2.136-7.636-4.344-9.812-6.856c-4.716-5.448-6.404-10.24-6.416-10.288l-2.364-6.84l0.712,7.204
				c0.076,0.78,1.832,17.496,9.12,26.372c-1.612,0.62-3.052,2.048-4.524,3.636c-1.876,2.016-4,4.304-6.26,4.488
				c-2.428,0.196-4.788,0.568-6.732,0.932c-2.268-3.284-5.26-6.628-8.704-7.988c-1.936-0.764-3.792-1.42-5.532-2.032
				c-4.752-1.676-8.512-3-10.424-5.332l-2.884-3.512l1.416,4.316c0.128,0.392,3.2,9.648,6.84,12.768
				c2.044,1.748,5.528,2.5,8.904,3.22c1.508,0.324,3.028,0.664,4.408,1.08c-0.26,0.884-1.672,5.792-2.292,10.98
				c-0.268,2.256-2.64,4.292-4.732,6.084c-1.38,1.188-2.664,2.344-3.468,3.624c-8.84-6.248-22.604-8.496-23.312-8.608l-7.22-1.14
				l6.764,2.764c0.048,0.02,4.708,1.96,9.896,7c2.384,2.32,4.364,6.324,6.276,10.2c2.296,4.648,4.672,9.452,7.916,11.744
				c4.024,2.84,12.224,4.232,17.148,4.836c1.64,4.036,3.48,14.588,3.12,19.56c-8.004-8.704-26.492-11.432-27.312-11.548
				l-7.188-1.016l6.756,2.652c0.048,0.02,4.76,1.904,10.008,6.848c2.416,2.28,4.46,6.256,6.436,10.1
				c2.368,4.608,4.816,9.376,8.092,11.616c2.672,1.824,7.132,2.988,11.276,3.728c3.356,4.796,6.928,8.908,9.252,9.996
				c2.172,1.016,6.744,3.652,11.56,6.6c-6.992,0.816-13.908,4.04-14.316,4.232l-6.532,3.092l7.072-1.496
				c0.04-0.012,3.632-0.744,8.756,0.152c2.352,0.412,5.176,2,7.908,3.54c3.316,1.868,6.752,3.804,9.704,3.848c0.04,0,0.084,0,0.12,0
				c2.784,0,6.616-1.464,9.704-2.892c0,0,0,0.004,0.004,0.004c0.92-0.296,7.956-1.452,8.876-1.764
				c3.392-1.152,6.888-2.372,9.148-2.304c6.808,0.084,16.88-2.764,23.328-6.584l0.408-0.24l0.252-0.396
				c0.924-1.428,1.796-3.068,2.612-4.804c2.732-0.012,5.472-0.016,8.176-0.084c5.528-0.14,9.836-0.74,13.568-1.892
				c8.468-2.612,14.316-8.912,17.392-18.724c0.64-2.056,1.036-4.164,1.416-6.204c0.248-1.304,0.492-2.604,0.8-3.9
				c0.24-1,0.48-5.136,0.476-5.652L241.496,236.224z M200.864,3.024l6.48,0.456l-0.316,4.508l-6.616,1.464L200.864,3.024z
				 M200.252,11.792l6.616-1.464l-0.364,5.22l-6.616,1.464L200.252,11.792z M199.724,19.348l6.616-1.464l-2.128,30.488l-6.604,1.272
				L199.724,19.348z M197.444,51.98l6.604-1.272l-0.364,5.212l-6.604,1.272L197.444,51.98z M196.916,59.524l6.604-1.272
				l-0.708,10.144H196.3L196.916,59.524z M151.948,74.696c0-1.284,1.048-2.332,2.332-2.332h63.704c1.284,0,2.332,1.048,2.332,2.332
				v1.132c0,1.284-1.048,2.332-2.332,2.332H154.28c-1.284,0-2.332-1.048-2.332-2.332V74.696z M154.28,82.128h63.704
				c1.284,0,2.332,1.048,2.332,2.332v1.132c0,1.284-1.048,2.332-2.332,2.332h-5.944c-0.068,0-0.12-0.012-0.188-0.016
				c0,0-0.336,0.004-0.9,0.016h-49.684c-0.576-0.008-0.924-0.016-0.936-0.016c-0.068,0-0.12,0.012-0.184,0.016h-5.864
				c-1.284,0-2.332-1.048-2.332-2.332V84.46h-0.004C151.948,83.176,152.996,82.128,154.28,82.128z M118.544,198.876
				c-5.652,5.44-3.712,40.116,13.932,58.46c9.296,9.664,19.56,14.604,29.14,14.604c7.052,0,13.736-2.676,19.396-8.12
				c13.344-12.836,11.544-31.972-4.588-48.748c-1.248-1.3-2.6-2.504-4.004-3.652l0.232-0.916c1.632,1.304,3.228,2.66,4.68,4.164
				c16.684,17.352,18.512,37.176,4.66,50.504c-13.86,13.328-33.6,10.724-50.284-6.624c-18.916-19.668-19.708-56.22-14.752-60.992
				c1.4-1.344,5.304-2.136,10.616-2.136c11.896,0,30.832,3.98,44.472,14.54l0.16,1.292
				C153.772,196.316,123.78,193.844,118.544,198.876z M175.604,215.86c15.656,16.28,17.472,34.784,4.62,47.148
				c-12.844,12.36-31.268,9.828-46.924-6.456c-17.688-18.392-18.568-52.432-13.964-56.86c1.276-1.228,4.828-1.948,9.668-1.948
				C141.572,197.748,162.84,202.588,175.604,215.86z M172.504,203.728c-1.548-3.964-4.744-8.024-8.552-12.868
				c-1.752-2.224-3.56-4.524-5.404-7.06c-4.568-6.272-4.568-17.592-4.084-24.3c0.556,1.916,1.388,4.22,2.616,6.748
				c1.584,3.248,4.88,6.488,8.064,9.616c3.548,3.488,7.212,7.088,8.248,10.476C174.756,190.796,173.44,199.072,172.504,203.728z
				 M166.34,174.656c-3.084-3.028-6.268-6.164-7.724-9.152c-3.16-6.476-3.56-11.54-3.564-11.588l-0.172-2.38h32.764l-3.06,43.8
				c-2.884-2.232-6.048-4.392-9-6.136c-0.096-1.224-0.268-2.372-0.568-3.352C173.86,182.048,170.04,178.288,166.34,174.656z
				 M188.532,179.516l6.616-1.428l-1.812,25.952c-0.92-1.744-3.168-4.076-6.06-6.528L188.532,179.516z M188.696,177.18l0.356-5.096
				l6.62-1.52l-0.364,5.184L188.696,177.18z M189.216,169.744l1.272-18.212h6.516l-1.164,16.692L189.216,169.744z M190.764,147.564
				L190.764,147.564l0.564-8.096l6.628-1.624l-0.68,9.72H190.764z M191.496,137.128l0.364-5.228l6.628-1.624l-0.364,5.228
				L191.496,137.128z M192.024,129.556l2.092-29.94l6.612-1.42l-2.076,29.732L192.024,129.556z M194.28,97.276l0.356-5.076
				c2.316-0.036,4.512-0.076,6.52-0.108l-0.264,3.764L194.28,97.276z M139.94,137.36c2.892-7.424,6.068-14.824,9.132-21.98
				c2.096-4.884,3.044-9.612,2.892-14.464c-0.104-3.348,0.448-5.62,1.704-6.94c1.24-1.312,3.448-1.988,6.676-2.068
				c0,0,12.572,0.22,25.82,0.428c1.9-0.028,3.784-0.06,5.624-0.088l-3.864,55.316h-33.328l-0.064-0.884l-0.144,0.884h-17.404
				C137.7,144.176,138.62,140.748,139.94,137.36z M136.244,151.532h17.496l-0.376,2.304c-0.14,0.86-3.34,21.14,3.808,30.964
				c0.216,0.296,0.424,0.564,0.64,0.856c-5.948-0.78-14.204-3.308-16.7-4.82c-0.244-4.692-1.08-14.064-3.908-18.608
				c-0.508-0.82-1.176-1.592-1.948-2.336C135.456,157.216,135.788,154.404,136.244,151.532z M110.576,142.048
				c1.028,1.708,2.42,3.724,4.26,5.852c2.368,2.732,6.38,5.016,10.26,7.224c4.32,2.46,8.788,5,10.66,8.004
				c2.46,3.956,3.312,12.292,3.604,17.032c-2.52-3.436-6.652-6.544-11.584-10.248c-2.252-1.696-4.588-3.452-7.02-5.424
				C114.74,159.596,111.832,148.652,110.576,142.048z M89.628,172.06c-3.164-0.68-6.436-1.384-8.148-2.852
				c-2.076-1.772-4.04-6.052-5.216-8.992c2.224,1.4,5.16,2.436,8.588,3.648c1.72,0.608,3.56,1.252,5.472,2.012
				c4.076,1.612,7.596,6.556,9.804,10.356c-0.012,0.012-0.016,0.028-0.024,0.04c0.012-0.004,0.032-0.004,0.044-0.008
				c0.036,0.064,0.08,0.132,0.116,0.196c-0.768-0.604-1.66-1.24-2.676-1.864C95.524,173.328,92.528,172.684,89.628,172.06z
				 M84.496,216.064c-2.892-2.04-5.168-6.648-7.372-11.104c-1.98-4.004-4.028-8.144-6.616-10.664
				c-2.02-1.964-3.952-3.472-5.596-4.596c6.52,1.636,17.276,5.172,21.808,11.472c1.832,2.544,3.448,4.98,5.016,7.332
				c3.416,5.136,6.272,9.436,9.556,12.148C96.572,220.084,88.3,218.752,84.496,216.064z M101.536,259.092
				c-2.92-1.996-5.268-6.564-7.544-10.988c-2.04-3.972-4.152-8.08-6.784-10.56c-2.044-1.928-4-3.408-5.66-4.504
				c6.544,1.532,17.352,4.904,21.98,11.124c1.868,2.508,3.524,4.916,5.124,7.248c3.492,5.084,6.42,9.344,9.748,12.004
				C113.68,262.92,105.38,261.716,101.536,259.092z M155.716,289.096c-3.1,1.528-7.444,3.392-10.332,3.392c-0.036,0-0.072,0-0.104,0
				c-2.52-0.04-5.756-1.868-8.892-3.632c-2.86-1.608-5.812-3.272-8.452-3.736c-1.488-0.26-2.852-0.392-4.048-0.444
				c4.652-1.608,11.708-3.388,16.532-1.64c2.14,0.78,4.14,1.588,6.012,2.348c3.68,1.492,6.824,2.752,9.656,3.236
				C155.988,288.776,155.868,288.932,155.716,289.096z M193.988,277.444c-5.832,3.324-14.856,5.868-20.804,5.792
				c-3.048-0.032-6.624,1.192-10.516,2.516c-1.32,0.448-2.712,0.9-4.1,1.316c-3.136,0.084-6.86-1.364-11.496-3.248
				c-1.744-0.708-3.624-1.46-5.6-2.188c-6.872-4.436-15.32-9.468-18.676-11.036c-1.272-0.592-3.264-2.776-5.408-5.576
				c2.44,0.272,4.184,0.376,4.388,0.384l4.536,0.248l-4.136-1.872c-4.288-1.936-7.748-6.968-12.124-13.332
				c-0.992-1.444-2.028-2.936-3.1-4.448c-0.004-0.096-0.016-0.204,0.004-0.272c1.676-3.416,0.484-15.728-1.948-23.008l4.172,0.292
				l-4.112-1.936c-4.26-2.004-7.636-7.084-11.912-13.516c-1.576-2.368-3.204-4.816-5.052-7.384c-0.828-1.152-1.848-2.204-2.984-3.18
				c0.452,0.22,0.884,0.492,1.268,0.904c0.152-0.64,1.832-2.096,2.876-2.996c2.512-2.16,5.64-4.84,6.092-8.644
				c0.46-3.808,1.412-7.588,1.9-9.392c0.136-0.032,0.332-0.072,0.516-0.112c3.256,2.228,4.9,4.388,4.916,4.408l4.292,5.776
				l-2.828-6.616c-0.084-0.196-0.872-2.008-2.2-4.364c1.488-0.248,3.076-0.484,4.76-0.62c3.816-0.308,6.616-3.328,8.872-5.752
				c0.76-0.82,3.26-2.768,4.44-3.516c2.332,1.88,4.572,3.572,6.74,5.2c6.176,4.644,11.06,8.312,12.812,12.68l1.696,4.216
				l-0.028-2.444c5.02,2.296,13.88,4.008,19.72,4.068c0.556,0.712,1.116,1.432,1.66,2.124c4.58,5.82,8.2,10.468,9,14.956
				c-20.264-14.36-50.664-16.292-56.228-10.936c-6.292,6.052-4.544,44.2,14.688,64.196c10.08,10.48,21.248,15.828,31.744,15.828
				c7.88,0,15.38-3.016,21.748-9.14c14.848-14.28,13.044-35.364-4.596-53.708c-1.744-1.816-3.688-3.444-5.704-4.988l0.144-0.564
				c0.104-0.412,1.796-7.184,2.192-13.616c6.284,4.028,13.248,9.56,14.324,12.112c1.508,3.58,6.608,12.932,10.916,20.132
				c0.516,1.532,1.044,3.076,1.544,4.464c1.572,4.348,2.792,7.908,2.828,10.888c-0.516,1.656-1.084,3.348-1.696,4.944
				c-1.476,3.836-2.868,7.46-2.924,10.412C200.468,262.64,197.536,271.748,193.988,277.444z M201.348,219.132
				c0.176-4.024,1.536-8.412,2.792-11.636c0.004,1.2,0.084,2.568,0.284,4.068c0.356,2.652,1.904,5.668,3.4,8.584
				c1.644,3.2,3.34,6.508,3.28,9.032c-0.072,3.12-2.492,8-4.204,11.072c-0.312-2.952-1.512-6.28-2.924-10.192
				c-0.688-1.904-1.42-3.932-2.116-6.108c-0.432-1.352-0.568-2.872-0.528-4.448c0.04-0.076,0.036-0.192,0.084-0.264
				C201.392,219.204,201.372,219.168,201.348,219.132z M237.496,239.564h-21.088v3.968h20.744c-0.32,1.332-0.576,2.688-0.828,4.036
				c-0.38,2.016-0.736,3.92-1.308,5.752c-2.652,8.48-7.616,13.896-14.752,16.096c-3.368,1.04-7.336,1.584-12.488,1.712
				c-2.12,0.052-4.256,0.072-6.388,0.092c1.868-4.952,3.116-10.244,3.192-14.26c0.044-2.252,1.372-5.712,2.656-9.056
				c1.384-3.604,2.708-7.24,3.012-10.452c1.312-2.768,2.504-5.872,2.56-8.236c0.068-2.952-1.732-6.456-3.468-9.848
				c-1.428-2.788-2.912-5.672-3.228-8.036c-0.7-5.16,0.18-8.72,0.188-8.756l1.772-7.02l-3.352,6.416
				c-0.212,0.408-3.836,7.456-4.844,14.552c-1.5-2.676-2.912-5.276-4.052-7.472l7.784-111.48h0.008
				c-0.004-0.008,0-0.016-0.004-0.024l0.384-5.504c4.768-0.08,7.88-0.136,7.84-0.136c3.308,0.08,5.52,0.756,6.756,2.068
				c1.252,1.324,1.808,3.592,1.704,6.94c-0.152,4.848,0.792,9.58,2.888,14.464c3.072,7.156,6.248,14.556,9.136,21.98
				c4.156,10.66,4.88,21.852,5.048,30.416c0.124,6.432,0.024,13-0.076,19.348c-0.068,4.512-0.136,9.024-0.128,13.532
				c0.016,11.872,0.172,23.748,0.328,35.62l0.036,2.52C237.532,238.924,237.516,239.212,237.496,239.564z"/>
			<rect x="211.664" y="147.544" width="13.736" height="3.968"/>
			<path d="M158.936,214.628c0.984,0,2.008-0.756,2.112-1.476c0.112-0.784-0.804-1.916-1.864-2.068
				c-0.052-0.008-0.112-0.012-0.172-0.012c-1.14,0-3.468,1.288-3.468,1.288s2.072,2.1,3.132,2.252
				C158.764,214.624,158.852,214.628,158.936,214.628z M159.012,212.208h0.012c0.472,0.068,0.884,0.62,0.908,0.756
				c-0.06,0.152-0.512,0.528-1.076,0.528c-0.004,0-0.008,0-0.012,0c-0.224-0.044-0.728-0.384-1.296-0.844
				C158.164,212.392,158.724,212.208,159.012,212.208z"/>
			<path d="M166.944,267.004c0.912-0.56,1.3-1.964,0.884-2.64c-0.26-0.424-0.928-0.692-1.612-0.692c-0.4,0-0.808,0.092-1.144,0.3
				c-0.912,0.56-1.976,3.312-1.976,3.312s0.74,0.072,1.592,0.072C165.532,267.356,166.492,267.284,166.944,267.004z
				 M165.668,264.936c0.136-0.084,0.336-0.132,0.548-0.132c0.368,0,0.608,0.128,0.632,0.128c0.064,0.184-0.096,0.856-0.496,1.104
				c-0.004,0-0.332,0.172-1.532,0.184C165.156,265.576,165.484,265.068,165.668,264.936z"/>
			<path d="M157.6,230.072c0.24,0.1,0.504,0.144,0.768,0.144c0.824,0,1.656-0.428,1.884-0.98c0.3-0.732-0.312-2.056-1.304-2.46
				c-0.208-0.084-0.5-0.12-0.832-0.12c-1.236,0-3.008,0.472-3.008,0.472S156.612,229.664,157.6,230.072z M158.12,227.788
				c0.292,0,0.404,0.036,0.404,0.036c0.44,0.18,0.708,0.816,0.7,0.952c-0.072,0.104-0.436,0.304-0.848,0.304
				c-0.128,0-0.248-0.02-0.336-0.056c-0.208-0.1-0.616-0.548-1.052-1.132C157.38,227.832,157.784,227.788,158.12,227.788z"/>
			<path d="M146.588,239.644c1.004-0.368,1.668-1.664,1.396-2.408c-0.212-0.584-1.084-1.056-1.936-1.056
				c-0.236,0-0.468,0.036-0.684,0.116c-1.004,0.368-2.604,2.848-2.604,2.848s1.92,0.592,3.156,0.592
				C146.18,239.732,146.412,239.708,146.588,239.644z M145.752,237.36c0.084-0.032,0.184-0.048,0.296-0.048
				c0.432,0,0.812,0.224,0.864,0.28c0.024,0.196-0.268,0.82-0.708,0.984c0,0-0.08,0.024-0.284,0.024
				c-0.356,0-0.808-0.064-1.256-0.152C145.124,237.884,145.544,237.448,145.752,237.36z"/>
			<path d="M124.172,222.1c-0.132-0.04-0.296-0.056-0.476-0.056c-1.22,0-3.312,0.78-3.312,0.78s1.74,2.384,2.768,2.688
				c0.18,0.052,0.368,0.08,0.556,0.08c0.892,0,1.816-0.548,2.004-1.172C125.936,223.664,125.196,222.408,124.172,222.1z
				 M123.708,224.46c-0.084,0-0.164-0.012-0.228-0.028c-0.216-0.08-0.664-0.484-1.156-1.024c0.516-0.132,1.024-0.232,1.372-0.232
				l0.152,0.008c0.456,0.136,0.784,0.744,0.788,0.88C124.56,224.204,124.14,224.46,123.708,224.46z"/>
			<path d="M169.004,232.116c-0.388-0.3-0.9-0.44-1.392-0.44c-0.58,0-1.128,0.192-1.392,0.532c-0.488,0.624-0.252,2.064,0.592,2.72
				s3.796,0.696,3.796,0.696S169.848,232.772,169.004,232.116z M167.512,234.032c-0.376-0.292-0.46-0.976-0.416-1.104
				c0.044-0.036,0.236-0.116,0.516-0.116c0.276,0,0.536,0.076,0.692,0.196c0.172,0.152,0.444,0.692,0.708,1.372
				C168.288,234.292,167.696,234.16,167.512,234.032z"/>
			<path d="M134.276,206.628c0.848,0.652,3.796,0.692,3.796,0.692s-0.76-2.852-1.604-3.508c-0.388-0.3-0.9-0.436-1.392-0.436
				c-0.58,0-1.128,0.192-1.392,0.532C133.196,204.532,133.432,205.972,134.276,206.628z M134.56,204.624
				c0.044-0.036,0.236-0.116,0.516-0.116c0.276,0,0.536,0.076,0.692,0.196c0.172,0.152,0.444,0.692,0.708,1.372
				c-0.72-0.088-1.312-0.216-1.5-0.348C134.6,205.436,134.516,204.752,134.56,204.624z"/>
			<path d="M182.544,250.144c0.236,0.092,0.488,0.136,0.748,0.136c0.832,0,1.676-0.44,1.9-1c0.292-0.736-0.336-2.052-1.328-2.448
				c-0.2-0.08-0.472-0.112-0.784-0.112c-1.236,0-3.056,0.504-3.056,0.504S181.552,249.748,182.544,250.144z M183.08,247.856
				c0.264,0,0.364,0.032,0.364,0.032c0.44,0.176,0.716,0.808,0.708,0.944c-0.072,0.108-0.444,0.312-0.86,0.312
				c-0.124,0-0.236-0.02-0.324-0.052c-0.208-0.096-0.62-0.54-1.06-1.12C182.32,247.904,182.736,247.856,183.08,247.856z"/>
			<path d="M148.64,250.44c-0.068-0.016-0.14-0.024-0.216-0.024c-0.764,0-1.776,0.772-1.988,1.72
				c-0.232,1.044,0.992,3.728,0.992,3.728s2.252-1.904,2.488-2.948C150.144,251.876,149.412,250.616,148.64,250.44z
				 M148.808,252.668c-0.064,0.22-0.44,0.696-0.94,1.224c-0.228-0.688-0.364-1.28-0.328-1.504c0.1-0.44,0.628-0.796,0.852-0.832
				C148.576,251.68,148.904,252.232,148.808,252.668z"/>
			<path d="M134.076,229.224c0.232-1.044-0.5-2.304-1.272-2.476c-0.068-0.016-0.14-0.024-0.216-0.024
				c-0.764,0-1.776,0.772-1.988,1.72c-0.232,1.044,0.992,3.728,0.992,3.728S133.844,230.268,134.076,229.224z M132.556,227.86
				c0.184,0.124,0.512,0.676,0.416,1.108c-0.064,0.22-0.436,0.696-0.94,1.224c-0.228-0.692-0.364-1.28-0.328-1.504
				C131.804,228.252,132.332,227.896,132.556,227.86z"/>
			<path d="M151.272,207.568c0.232-1.044-0.5-2.304-1.272-2.476c-0.068-0.016-0.144-0.024-0.216-0.024
				c-0.764,0-1.776,0.772-1.988,1.72c-0.232,1.044,0.992,3.728,0.992,3.728S151.04,208.612,151.272,207.568z M149.752,206.204
				c0.184,0.124,0.512,0.676,0.416,1.112c-0.064,0.22-0.436,0.696-0.94,1.224c-0.228-0.688-0.364-1.28-0.328-1.504
				C149,206.596,149.528,206.24,149.752,206.204z"/>
			<path d="M130.544,243.024c0.604,0,1.284-0.228,1.712-0.688c0.728-0.784,1.02-3.72,1.02-3.72s-2.908,0.512-3.632,1.296
				c-0.728,0.784-0.728,2.24-0.148,2.78C129.732,242.912,130.12,243.024,130.544,243.024z M130.468,240.684
				c0.164-0.16,0.728-0.384,1.428-0.588c-0.148,0.712-0.328,1.288-0.476,1.464c-0.18,0.192-0.54,0.328-0.88,0.328
				c-0.128,0-0.216-0.02-0.248-0.02c-0.012,0-0.016,0-0.012,0.008C130.176,241.712,130.152,241.028,130.468,240.684z"/>
			<path d="M134.34,219.684c0.604,0,1.284-0.228,1.712-0.688c0.728-0.784,1.02-3.72,1.02-3.72s-2.908,0.512-3.632,1.296
				c-0.728,0.784-0.728,2.244-0.148,2.78C133.532,219.572,133.916,219.684,134.34,219.684z M134.268,217.348
				c0.164-0.16,0.728-0.384,1.428-0.588c-0.148,0.712-0.328,1.288-0.476,1.464c-0.18,0.192-0.54,0.328-0.88,0.328
				c-0.128,0-0.216-0.02-0.248-0.02c-0.012,0-0.016,0-0.012,0.008C133.972,218.372,133.948,217.688,134.268,217.348z"/>
			<path d="M123.78,210.22c0.24,0.22,0.624,0.332,1.048,0.332c0.604,0,1.284-0.228,1.712-0.688c0.728-0.784,1.02-3.72,1.02-3.72
				s-2.908,0.512-3.632,1.296C123.2,208.224,123.2,209.684,123.78,210.22z M124.752,208.216c0.164-0.16,0.728-0.384,1.428-0.588
				c-0.148,0.712-0.328,1.288-0.476,1.464c-0.18,0.192-0.54,0.328-0.88,0.328c-0.128,0-0.216-0.02-0.248-0.02
				c-0.012,0-0.016,0.004-0.012,0.008C124.46,209.24,124.436,208.556,124.752,208.216z"/>
			<path d="M167.332,220.072c0.604,0,1.284-0.228,1.712-0.688c0.728-0.784,1.02-3.72,1.02-3.72s-2.908,0.512-3.632,1.296
				c-0.728,0.784-0.728,2.24-0.148,2.78C166.524,219.96,166.908,220.072,167.332,220.072z M167.26,217.732
				c0.164-0.16,0.728-0.384,1.428-0.588c-0.148,0.712-0.328,1.288-0.476,1.464c-0.18,0.192-0.54,0.328-0.88,0.328
				c-0.128,0-0.216-0.02-0.248-0.02c-0.012,0-0.016,0.004-0.012,0.008C166.964,218.76,166.94,218.076,167.26,217.732z"/>
			<path d="M175.532,261.664c0.24,0.22,0.624,0.332,1.048,0.332c0.604,0,1.284-0.228,1.712-0.688c0.728-0.784,1.02-3.72,1.02-3.72
				s-2.908,0.512-3.632,1.296C174.952,259.668,174.952,261.128,175.532,261.664z M176.508,259.66
				c0.164-0.16,0.728-0.384,1.428-0.588c-0.148,0.712-0.328,1.288-0.472,1.464c-0.18,0.192-0.54,0.328-0.88,0.328
				c-0.128,0-0.216-0.02-0.248-0.02c-0.012,0-0.016,0.004-0.012,0.008C176.212,260.684,176.188,260.004,176.508,259.66z"/>
			<path d="M155.412,247.68c0.604,0,1.284-0.228,1.712-0.688c0.728-0.784,1.02-3.72,1.02-3.72s-2.908,0.512-3.632,1.296
				c-0.728,0.784-0.728,2.24-0.148,2.78C154.604,247.568,154.992,247.68,155.412,247.68z M155.34,245.34
				c0.164-0.16,0.728-0.384,1.428-0.588c-0.148,0.712-0.328,1.288-0.472,1.464c-0.18,0.192-0.54,0.328-0.88,0.328
				c-0.128,0-0.216-0.02-0.248-0.02c-0.012,0-0.016,0.004-0.012,0.008C155.044,246.364,155.024,245.684,155.34,245.34z"/>
			<path d="M136.008,250.552c-0.168,0-0.324,0.028-0.46,0.088c-0.724,0.316-1.204,1.696-0.776,2.672
				c0.428,0.98,3.004,2.42,3.004,2.42s0.688-2.868,0.26-3.848C137.688,251.088,136.74,250.552,136.008,250.552z M136.964,253.876
				c-0.592-0.42-1.052-0.816-1.152-1.02c-0.192-0.436,0.06-1.08,0.16-1.172h0.032c0.32,0,0.84,0.3,0.992,0.648
				C137.076,252.548,137.056,253.156,136.964,253.876z"/>
			<path d="M168.752,247.576c-0.068-0.016-0.144-0.024-0.216-0.024c-0.764,0-1.776,0.772-1.988,1.72
				c-0.232,1.044,0.992,3.728,0.992,3.728s2.252-1.904,2.488-2.948S169.524,247.752,168.752,247.576z M168.916,249.804
				c-0.064,0.22-0.436,0.696-0.94,1.224c-0.228-0.692-0.364-1.28-0.328-1.504c0.1-0.44,0.628-0.796,0.852-0.832
				C168.684,248.816,169.012,249.368,168.916,249.804z"/>
			<path d="M183.948,234.42c0.232-1.044-0.5-2.304-1.272-2.476c-0.068-0.016-0.144-0.024-0.216-0.024
				c-0.764,0-1.776,0.772-1.988,1.72c-0.232,1.044,0.992,3.728,0.992,3.728S183.716,235.46,183.948,234.42z M182.428,233.056
				c0.184,0.124,0.512,0.676,0.416,1.112c-0.064,0.22-0.436,0.696-0.94,1.224c-0.228-0.692-0.364-1.28-0.328-1.504
				C181.676,233.448,182.204,233.092,182.428,233.056z"/>
			<path d="M176.852,226.232c0.232-1.044-0.5-2.304-1.272-2.476c-0.068-0.016-0.14-0.024-0.216-0.024
				c-0.764,0-1.776,0.772-1.988,1.72c-0.232,1.044,0.992,3.728,0.992,3.728S176.616,227.272,176.852,226.232z M175.332,224.868
				c0.184,0.124,0.512,0.672,0.416,1.108c-0.064,0.22-0.436,0.696-0.94,1.224c-0.228-0.692-0.364-1.28-0.328-1.504
				C174.58,225.26,175.108,224.904,175.332,224.868z"/>
			<path d="M147.24,223.036c0.232-1.044-0.5-2.304-1.272-2.476c-0.068-0.016-0.14-0.024-0.216-0.024
				c-0.764,0-1.776,0.772-1.988,1.72c-0.232,1.044,0.992,3.728,0.992,3.728S147.004,224.08,147.24,223.036z M145.716,221.672
				c0.184,0.124,0.512,0.676,0.416,1.112c-0.064,0.22-0.436,0.696-0.94,1.224c-0.228-0.692-0.364-1.28-0.328-1.504
				C144.964,222.064,145.496,221.708,145.716,221.672z"/>
			<path d="M156.18,262.388c0.232-1.044-0.5-2.304-1.272-2.476c-0.068-0.016-0.144-0.024-0.216-0.024
				c-0.764,0-1.776,0.772-1.988,1.72c-0.232,1.044,0.992,3.728,0.992,3.728S155.944,263.432,156.18,262.388z M154.66,261.024
				c0.184,0.124,0.512,0.676,0.416,1.112c-0.064,0.22-0.436,0.696-0.94,1.224c-0.228-0.692-0.364-1.28-0.328-1.504
				C153.908,261.416,154.436,261.06,154.66,261.024z"/>
		</g>
	</g>
</g>
<g>
</g>
<g>
</g>
<g>
</g>
<g>
</g>
<g>
</g>
<g>
</g>
<g>
</g>
<g>
</g>
<g>
</g>
<g>
</g>
<g>
</g>
<g>
</g>
<g>
</g>
<g>
</g>
<g>
</g>
</svg>
