<?xml version="1.0" encoding="iso-8859-1"?>
<!-- Generator: Adobe Illustrator 19.0.0, SVG Export Plug-In . SVG Version: 6.00 Build 0)  -->
<svg version="1.1" id="Layer_1" xmlns="http://www.w3.org/2000/svg" xmlns:xlink="http://www.w3.org/1999/xlink" x="0px" y="0px"
	 viewBox="0 0 302.8 302.8" style="enable-background:new 0 0 302.8 302.8;" xml:space="preserve">
<g>
	<g>
		<g>
			<path d="M116.912,81.864c0.124,0,0.2-0.008,0.208-0.008l22.736-0.228l-0.732-0.788c-0.516-0.556-12.652-13.6-14.972-15.792
				c-0.664-0.628-1.5-0.884-2.416-0.72c-2.26,0.392-4.812,3.236-6.068,5.712c-1.572,3.104-1.72,4.332-2.16,7.972
				c-0.148,1.224,0.108,2.188,0.764,2.864C115.128,81.768,116.412,81.864,116.912,81.864z M114.452,78.116
				c0.436-3.608,0.568-4.696,2.064-7.648c1.164-2.304,3.496-4.876,5.38-5.204c0.128-0.024,0.252-0.032,0.376-0.032
				c0.464,0,0.868,0.164,1.224,0.5c1.972,1.868,11.464,12.036,14.192,14.964l-20.612,0.208c-0.012,0-1.372,0.088-2.12-0.692
				C114.512,79.748,114.34,79.044,114.452,78.116z"/>
			<path d="M124.24,64.792l16.272,16.064l0.032-1.096c0.024-0.76,0.536-18.66,0.428-21.868c-0.032-0.924-0.456-1.696-1.232-2.24
				c-1.88-1.312-5.664-1.116-8.264-0.264c-3.288,1.08-4.248,1.84-7.1,4.1c-0.956,0.756-1.448,1.62-1.464,2.56
				C122.88,63.616,124.208,64.772,124.24,64.792z M124.968,60.24c2.828-2.244,3.68-2.92,6.808-3.944
				c1.216-0.4,2.688-0.64,4.052-0.64c1.348,0,2.588,0.232,3.368,0.78c0.536,0.372,0.804,0.864,0.828,1.492
				c0.092,2.728-0.284,16.68-0.396,20.712l-14.74-14.548c-0.012-0.012-1.044-0.924-1.024-2.024
				C123.876,61.428,124.244,60.812,124.968,60.24z"/>
			<path d="M141.512,80.78l0.792-0.752c0.548-0.52,13.432-12.808,15.6-15.156c0.62-0.672,0.864-1.516,0.7-2.448
				c-0.4-2.276-3.216-4.84-5.656-6.104c-3.076-1.584-4.288-1.736-7.892-2.176c-1.188-0.136-2.144,0.108-2.82,0.752
				c-1.128,1.084-0.996,2.86-0.988,2.904L141.512,80.78z M142.896,55.584c0.364-0.352,0.88-0.528,1.532-0.528
				c0.164,0,0.332,0.012,0.512,0.032c3.568,0.436,4.648,0.568,7.572,2.076c2.272,1.172,4.824,3.52,5.156,5.42
				c0.112,0.644-0.036,1.18-0.464,1.636c-1.844,1.996-11.86,11.58-14.768,14.36l-0.244-20.828
				C142.196,57.744,142.104,56.348,142.896,55.584z"/>
			<path d="M158.164,65.008L142.28,81.44l1.076,0.032c0.684,0.02,15.304,0.448,20.396,0.448c0.524,0,0.944-0.004,1.244-0.012
				c0.904-0.032,1.664-0.448,2.196-1.208c1.324-1.888,1.14-5.728,0.288-8.38c-1.068-3.324-1.824-4.296-4.06-7.176
				c-0.748-0.968-1.604-1.464-2.536-1.48c-0.016,0-0.032-0.004-0.052-0.004C159.308,63.66,158.188,64.972,158.164,65.008z
				 M160.836,64.612c0.012,0,0.02,0,0.032,0c0.632,0.008,1.24,0.388,1.804,1.116c2.216,2.856,2.888,3.716,3.904,6.88
				c0.792,2.472,0.944,5.968-0.164,7.544c-0.368,0.52-0.844,0.784-1.452,0.808c-2.708,0.084-16.508-0.292-20.496-0.408
				l14.408-14.908C158.88,65.632,159.764,64.612,160.836,64.612z"/>
			<path d="M121.32,290.54c-1.252-0.288-2.532-0.476-3.752-0.652c-2.464-0.356-4.788-0.692-5.22-1.464
				c-0.148-0.78-0.336-3.732-0.472-7.716c4.488-2.5,7.564-7.236,7.564-12.724c0-5.356-2.924-9.996-7.228-12.544
				c0.224-3.196,0.56-4.864,1.192-6.464c14.228-3.456,28.796-13.652,34.736-20.908c7.828-9.564,10.7-20.364,9.604-36.116
				c-0.84-12.128-3.712-23.276-6.612-33.748l-0.536-1.588c-0.28-0.808-0.312-0.908-0.724-2.564
				c-3.788-11.74-6.04-23.532-6.884-35.832c19.132-0.988,34.412-16.796,34.412-36.172c0-20.008-16.28-36.288-36.288-36.288
				c-16.764,0-30.868,11.44-35.016,26.916c-0.616-0.012-1.248-0.024-1.808-0.024c-2.348,0-4.7,0.116-7.044,0.228L87.748,0
				L76.784,1.428l9.412,72.236c-11.492,1.344-20.48,4.064-20.48,8.384c0,0.492,0.152,0.952,0.372,1.404l-0.272,0.036
				c3.204,25.184,1.248,47.608-6.192,70.7c-0.376,1.524-0.408,1.62-0.688,2.428l-0.564,1.684
				c-2.872,10.376-5.744,21.524-6.584,33.652c-1.092,15.756,1.78,26.56,9.608,36.116c5.984,7.316,20.74,17.616,35.12,20.988
				c0.644,1.408,1.028,3.324,1.272,6.192c-4.5,2.496-7.584,7.24-7.584,12.736c0,5.568,3.164,10.36,7.752,12.828
				c-0.176,3.732-0.388,6.496-0.524,7.244c-0.564,1.144-2.888,1.48-5.352,1.836c-1.224,0.176-2.5,0.364-3.54,0.616
				c-9.484,1.124-11.428,2.792-11.428,4.956c0,4.808,15.072,5.816,27.712,5.816s27.712-1.008,27.712-5.816
				C132.532,293.296,130.588,291.628,121.32,290.54z M141.108,49.084c18.172,0,32.96,14.784,32.96,32.956
				c0,17.596-13.876,31.96-31.252,32.86c-0.1-2.116-0.164-4.252-0.18-6.404c0.952,0.6,2.308,0.876,3.768,0.876
				c1.484,0,3.052-0.26,4.332-0.68c3.28-1.08,4.244-1.84,7.1-4.1c0.952-0.756,1.448-1.62,1.464-2.56
				c0.028-1.564-1.3-2.716-1.328-2.74L143.96,85.46c0.044-0.392,0.072-0.768,0.12-1.16c3.012,3.224,12.04,12.856,14.012,14.712
				c0.532,0.504,1.172,0.764,1.88,0.764c0.176,0,0.356-0.016,0.536-0.048c2.256-0.392,4.808-3.24,6.06-5.72
				c1.568-3.112,1.716-4.336,2.152-7.976c0.144-1.224-0.112-2.188-0.768-2.864c-1.08-1.116-2.824-0.976-2.852-0.976l-22.736,0.268
				l0.3,0.32l-1.284,0.168c-0.332,0.044-0.624-0.02-0.892-0.116c-0.052,0.052-0.14,0.104-0.204,0.156l-0.052-0.008
				c-0.004,0.016-0.004,0.036-0.004,0.052c-0.364,0.288-0.876,0.588-1.532,0.896l1.236-1.28l-1.076-0.032
				c-0.752-0.02-18.436-0.536-21.636-0.432c-0.9,0.028-1.66,0.448-2.196,1.208c-0.812,1.156-1.02,3.036-0.888,4.932
				c-1.688,0.096-3.44,0.168-5.276,0.212c-0.428-2.104-0.704-4.26-0.704-6.488C108.148,63.868,122.936,49.084,141.108,49.084z
				 M142.636,107.248c0.004-6.648,0.396-13.488,1.192-20.572l13.492,13.316c0.012,0.008,1.044,0.924,1.024,2.024
				c-0.012,0.644-0.384,1.26-1.104,1.828c-2.832,2.244-3.688,2.916-6.808,3.944c-2.42,0.788-5.864,0.952-7.424-0.14
				C142.844,107.536,142.752,107.388,142.636,107.248z M144.52,83.388l20.616-0.244c0.008,0.004,1.372-0.096,2.128,0.692
				c0.444,0.464,0.616,1.164,0.504,2.088c-0.432,3.608-0.564,4.696-2.056,7.66c-1.164,2.3-3.492,4.88-5.376,5.208
				c-0.624,0.108-1.148-0.044-1.6-0.468C156.768,96.464,147.256,86.312,144.52,83.388z M137.744,83.532l-1.204,1.248
				c-4.232,1.444-11.468,2.868-21.468,3.488c-0.124-1.712,0.052-3.376,0.724-4.332c0.368-0.52,0.844-0.788,1.452-0.808
				c0.284-0.008,0.692-0.012,1.2-0.012L137.744,83.532z M139.864,86.424c-0.604,5.444-1.036,10.776-1.184,15.96
				c-6.7-2.584-22.44-3.592-33.92-3.592c-1.324,0-2.72,0.02-4.136,0.048l-0.972-7.464c1.548,0.04,3.092,0.068,4.632,0.068
				C114.72,91.444,132.168,90.276,139.864,86.424z M138.672,106.76c-4.64,1.832-16.696,3.644-33.908,3.644
				c-16.76,0-28.664-1.72-33.56-3.5c0.004-1.16,0.024-2.316,0.008-3.48c3.264-1.188,9.632-2.344,18.468-2.984l0.856,6.56
				l1.064,0.152c0.992,0.144,1.944,0.216,2.864,0.216c2.28,0,4.336-0.44,6.128-1.328l0.912-0.444l-0.732-5.632
				c1.3-0.02,2.628-0.036,3.992-0.036c17.224,0,29.284,1.816,33.916,3.648C138.656,104.648,138.672,105.7,138.672,106.76z
				 M70.136,86.716c4.124,1.92,10.756,3.232,18.276,3.976l1.124,8.636c-7.332,0.524-14.276,1.456-18.32,2.904
				C71.1,97.16,70.704,91.98,70.136,86.716z M92.516,100.26c1.72-0.096,3.524-0.172,5.404-0.228l0.504,3.86
				c-1.544,0.56-3.332,0.752-5.356,0.584L92.516,100.26z M104.284,75.496c0.396,0,0.772,0.008,1.156,0.012
				c-0.388,2.124-0.62,4.3-0.62,6.532c0,2.236,0.244,4.412,0.636,6.536c-0.392,0.004-0.768,0.012-1.168,0.012
				c-1.736,0-3.392-0.028-5.004-0.072l-1.676-12.872C99.724,75.56,101.916,75.496,104.284,75.496z M97.772,98.912
				c-1.78,0.056-3.588,0.132-5.404,0.236l-1.068-8.2c1.8,0.14,3.628,0.252,5.476,0.332L97.772,98.912z M79.956,3.864L85.3,3.168
				l11.104,85.248c-1.932-0.084-3.744-0.208-5.48-0.348L79.956,3.864z M86.564,76.508L88.036,87.8
				c-9.632-1.008-15.78-2.8-18.236-4.348c-0.02-0.16-0.028-0.316-0.048-0.476l-0.52,0.064c-0.432-0.36-0.664-0.7-0.664-1.004
				C68.568,80.436,74.812,77.9,86.564,76.508z M71.2,108.092c6.9,2.476,22.296,3.444,33.56,3.444
				c11.468,0,27.196-1.004,33.904-3.584c0.048,14.272,1.892,27.744,5.588,41.012l-0.312-0.128c-1.416,3.376-4.38,5.888-7.928,6.724
				c-3.292,0.764-6.752,0.188-10-0.564c-6.452-1.496-12.988-3.784-19.304-5.996c-12.892-4.508-26.2-9.08-39.572-7.284
				C69.708,130.648,71.06,119.548,71.2,108.092z M55.744,192.22c0.816-11.76,3.632-22.688,6.42-32.776l0.52-1.54
				c0.32-0.92,0.356-1.032,0.752-2.636c1.336-4.136,2.432-8.256,3.424-12.376c13.248-1.924,26.572,2.664,39.476,7.18
				c6.348,2.224,12.912,4.52,19.42,6.028c2.236,0.52,4.576,0.96,6.92,0.96c1.2,0,2.408-0.112,3.6-0.4
				c3.616-0.852,6.62-3.328,8.288-6.636c0.488,1.704,0.944,3.412,1.492,5.112c0.428,1.74,0.468,1.848,0.788,2.768l0.492,1.444
				c2.816,10.184,5.636,21.108,6.448,32.872c0.096,1.368,0.124,2.652,0.156,3.94c-0.02,0.028-0.052,0.024-0.068,0.06
				c-9.308,19.756-41.924,12.76-57.828,6.944c-13.352-4.884-26.092-10.564-40.392-8.596C55.684,193.78,55.684,193.032,55.744,192.22
				z M64.46,225.548c-6.544-7.992-9.24-17.104-8.852-29.884c21.36-3.088,39.84,11.456,60.676,13.832
				c12.52,1.428,30.524,1.032,37.684-11.128c-0.06,11.384-2.824,19.752-8.9,27.18c-6.748,8.248-25.168,20.092-39.756,20.652h-1.016
				C89.624,245.64,71.208,233.792,64.46,225.548z M108.86,249.848c-0.272,0.988-0.484,2.204-0.648,3.948
				c-1.096-0.264-2.22-0.44-3.396-0.44c-1.12,0-2.196,0.152-3.244,0.392c-0.144-1.576-0.332-2.824-0.576-3.856
				c1.08,0.136,2.156,0.232,3.22,0.272h1.168C106.532,250.124,107.692,250.008,108.86,249.848z M94.164,267.98
				c0-5.876,4.78-10.652,10.652-10.652s10.652,4.776,10.652,10.652c0,5.876-4.78,10.652-10.652,10.652S94.164,273.856,94.164,267.98
				z M104.82,297.308c-10.924,0-18.248-0.96-21.764-1.84c1.276-0.328,3.224-0.712,6.164-1.064c1.144-0.264,2.312-0.428,3.424-0.588
				c3.372-0.488,6.86-0.988,8.348-4.02c0.28-0.576,0.608-3.472,0.86-7.5c0.96,0.2,1.952,0.304,2.968,0.304
				c1.084,0,2.136-0.14,3.156-0.364c0.176,4.108,0.428,7.056,0.68,7.564c1.488,3.028,4.976,3.528,8.348,4.016
				c1.116,0.16,2.28,0.324,3.64,0.624c2.82,0.336,4.708,0.708,5.952,1.028C123.08,296.348,115.752,297.308,104.82,297.308z"/>
			<path d="M249.584,258.5c-0.544-0.192-13.444-4.632-26-0.34c-3.876,1.324-7.228,3.32-10.024,5.456
				c1.824-3.748,2.876-8.024,3.772-12.444c0.768-3.788-0.576-6.144-4.232-7.412c-7.084-2.448-14.096-4.416-21.808-1.908
				c-1.572-8.596-7.108-14.144-12.272-18.704c-1.076-0.952-2.088-1.576-3.096-1.9c-0.4-0.132-0.824-0.132-1.22,0
				c-1.004,0.324-2.016,0.944-3.092,1.896c-5.164,4.564-10.704,10.108-12.272,18.708c-7.712-2.512-14.732-0.544-21.808,1.908
				c-3.656,1.264-5,3.62-4.232,7.412c1.856,9.136,4.3,17.696,13.064,22.136c-3.304,3.856-5.14,8.608-5.724,14.732
				c-0.208,2.152,1.732,5.252,3.832,6.148c6.168,2.632,14.06,4.876,21.532-0.3c3.596,4.924,5.972,7.916,8.688,8.812
				c0.2,0.068,0.412,0.1,0.62,0.1s0.42-0.036,0.62-0.1c2.716-0.896,5.092-3.888,8.688-8.812c7.468,5.176,15.368,2.932,21.528,0.304
				c1.092-0.464,2.076-1.532,2.784-2.736c5.1,5.844,13.104,7.824,13.464,7.908l1.496,0.352l0.228-1.52
				c0.056-0.364,1.284-9.004-3.728-15.828c-1.124-1.528-2.464-2.792-3.86-3.88c0.636,0.028,1.268,0.06,1.932,0.06
				c3.704,0,7.804-0.472,11.868-1.868c12.572-4.3,19.68-15.616,19.98-16.096l0.924-1.496L249.584,258.5z M245.136,260.236
				l-9.9,3.376l2-4.408C240.356,259.34,243.116,259.792,245.136,260.236z M235.252,259.172l-2.376,5.244l-6.3,2.148l3.292-6.976
				C231.716,259.312,233.52,259.176,235.252,259.172z M224.5,260.84c1.068-0.364,2.144-0.652,3.212-0.888l-3.316,7.024
				c-0.052,0.108-0.008,0.22-0.012,0.332l-6.9,2.352l3.268-7.216C221.952,261.848,223.184,261.292,224.5,260.84z M218.088,263.948
				l-2.928,6.46c-0.008,0.016,0.004,0.036,0,0.052l-7.004,2.388C210.164,270.38,213.556,266.796,218.088,263.948z M162.952,244.768
				c0.644-7.764,4.976-13.072,11.288-18.648c0.388-0.344,0.748-0.612,1.076-0.804c0.328,0.192,0.688,0.46,1.076,0.808
				c6.312,5.576,10.648,10.88,11.288,18.644c0.024,0.308,0.128,0.6,0.284,0.86l-9.172,8.924c-1.828,1.78-4.328,4.216-4.288,7.2
				c0.012,0.744,0.192,1.36,0.56,1.884c0.416,0.584,1.02,0.976,1.6,1.328c0.208,0.128,0.444,0.224,0.656,0.348
				c0.028,0.056,0.012,0.124,0.056,0.176c4.408,5.648,5.608,11.684,3.384,16.764c-2.384-1.736-4.276-3.652-5.384-5.472
				c-0.048-0.08-0.144-0.088-0.208-0.152c-0.06-0.064-0.072-0.16-0.148-0.212c-0.056-0.036-0.124-0.008-0.184-0.032
				c-0.132-0.056-0.248-0.064-0.392-0.064c-0.152,0-0.272,0.008-0.408,0.068c-0.056,0.024-0.124-0.004-0.176,0.028
				c-0.08,0.048-0.088,0.144-0.148,0.208c-0.064,0.064-0.16,0.072-0.208,0.152c-1.112,1.82-3.004,3.732-5.388,5.472
				c-2.128-4.86-1.088-10.592,2.864-16.028c0.508-0.312,1.052-0.58,1.544-0.908c0.54-0.364,1.1-0.772,1.484-1.368
				c0.328-0.516,0.492-1.132,0.504-1.88c0.036-3-2.256-5.48-3.928-7.284l-8.196-8.848
				C162.684,245.608,162.912,245.224,162.952,244.768z M137.188,250.384c-0.372-1.832-0.128-2.26,1.636-2.872
				c6.792-2.348,13.488-4.164,20.552-1.38l9.464,10.216c1.756,1.9,3.336,3.764,3.312,5.684c-0.008,0.304-0.052,0.52-0.14,0.66
				c-0.152,0.24-0.556,0.508-0.816,0.692c-5.836,3.912-12.772,6.576-20.096,7.808c-0.192-0.176-0.388-0.348-0.636-0.436
				C141.352,267.492,139.06,259.596,137.188,250.384z M204.596,290.54c-8.4,3.584-14.112,3.296-19.084-0.976
				c-0.416-0.356-0.968-0.512-1.52-0.464c-0.552,0.068-1.048,0.36-1.376,0.804c-3.048,4.2-5.528,7.612-7.3,8.728
				c-1.768-1.112-4.248-4.528-7.3-8.728c-0.328-0.444-0.824-0.74-1.376-0.804c-0.076-0.008-0.156-0.012-0.232-0.012
				c-0.472,0-0.928,0.168-1.292,0.48c-4.968,4.264-10.676,4.564-19.084,0.968c-0.512-0.224-1.428-1.584-1.44-2.12
				c0.604-6.352,2.624-10.768,6.536-14.32c0.188-0.168,0.288-0.392,0.4-0.612c5.484-0.928,10.756-2.62,15.552-5.028
				c-2.764,5.504-2.988,11.236-0.352,15.992c0.152,0.268,0.404,0.468,0.7,0.54c0.084,0.024,0.172,0.032,0.26,0.032
				c0.216,0,0.424-0.06,0.608-0.184c2.552-1.704,4.656-3.64,6.136-5.564c1.48,1.924,3.584,3.86,6.136,5.564
				c0.184,0.124,0.392,0.184,0.608,0.184c0.088,0,0.176-0.008,0.26-0.032c0.3-0.072,0.552-0.268,0.7-0.54
				c2.804-5.064,2.412-11.224-0.872-17.04c5.4,2.612,11.396,4.456,17.664,5.468c0.06,0.46,0.22,0.9,0.572,1.224
				c2.224,2.016,3.792,4.436,4.892,7.272c0.228,1.456,0.628,3.012,1.244,4.604c0.14,0.8,0.32,1.556,0.404,2.42
				C206.028,288.948,205.116,290.312,204.596,290.54z M200.164,270.756c-0.016,0.004-0.024,0.02-0.036,0.024
				c-8.112-1.2-15.792-3.848-22.244-7.752c-0.276-0.164-0.736-0.44-0.908-0.684c-0.1-0.14-0.148-0.34-0.152-0.628
				c-0.02-1.872,1.696-3.696,3.608-5.56l10-9.736c0.008-0.004,0.016,0,0.028-0.004c7.372-3.268,14.028-1.436,21.344,1.092
				c1.764,0.608,2.008,1.04,1.636,2.872C211.572,259.596,209.28,267.492,200.164,270.756z M218.116,284.048
				c3.108,4.232,3.408,9.464,3.328,12.08c-2.664-0.892-8.016-3.132-11.212-7.488c-2.92-3.972-3.352-8.808-3.328-11.552
				c0.804,0.204,1.808,0.42,2.912,0.628C212.52,278.952,215.852,280.96,218.116,284.048z M229.424,274
				c-6.932,2.372-14.128,1.804-18.844,0.956c-0.456-0.2-0.912-0.408-1.32-0.564l36.568-12.476
				C242.98,265.432,237.308,271.3,229.424,274z"/>
		</g>
	</g>
</g>
<g>
</g>
<g>
</g>
<g>
</g>
<g>
</g>
<g>
</g>
<g>
</g>
<g>
</g>
<g>
</g>
<g>
</g>
<g>
</g>
<g>
</g>
<g>
</g>
<g>
</g>
<g>
</g>
<g>
</g>
</svg>
